<svg width="356" height="307" viewBox="0 0 356 307" fill="none" xmlns="http://www.w3.org/2000/svg">
<path d="M100.584 301.162C87.0895 308.946 65.2107 308.946 51.7163 301.162C38.2218 293.376 38.2218 280.753 51.7163 272.967C65.2103 265.181 87.0895 265.181 100.584 272.967C114.078 280.753 114.078 293.376 100.584 301.162Z" fill="#E4F3FC"/>
<path d="M276.463 295.69C262.968 303.475 241.091 303.475 227.595 295.69C214.101 287.905 214.101 275.281 227.595 267.496C241.09 259.71 262.968 259.71 276.462 267.496C289.958 275.281 289.958 287.905 276.463 295.69Z" fill="#E4F3FC"/>
<path d="M267.427 192.858C205.319 170.002 176.898 204.182 176.022 230.134C175.882 234.271 176.605 238.245 177.911 242.008C171.045 242.666 164.453 244.503 159.156 247.56C145.662 255.345 145.662 267.968 159.156 275.753C172.65 283.539 194.53 283.539 208.024 275.753C208.024 275.753 328.937 259.601 331.857 249.575C334.778 239.549 329.537 215.714 267.427 192.858Z" fill="#E4F3FC"/>
<path d="M273.483 163.192C247.317 120.077 212.306 82.7155 173.868 60.5383C135.114 38.1791 99.8121 35.2611 73.5813 48.5781L59.0986 56.808L68.7008 68.3509L76.4357 68.9413C79.9018 72.6618 84.0565 74.3942 86.9575 72.9177C88.9674 71.8944 91.0594 71.0219 93.1886 70.2214L150.486 74.5946L217.504 127.66L259.267 187.923L273.741 179.697L273.749 179.694C277.691 177.419 277.569 169.926 273.483 163.192Z" fill="#DC2730"/>
<path d="M173.868 105.942C145.956 89.8384 120.489 87.5244 101.393 96.7406L86.9104 104.97L99.3303 108.809C99.7956 110.17 100.378 111.549 101.164 112.911L101.187 112.949C104.871 119.325 110.842 123.029 114.674 121.167C118.567 119.275 122.787 117.973 127.281 117.292L163.833 128.227L213.812 178.456L231.432 203.993L245.915 195.763L245.934 195.751C249.876 193.471 249.79 185.939 245.648 179.237C226.628 148.46 201.444 121.851 173.868 105.942Z" fill="#DC2730"/>
<path d="M177.174 153.367C176.151 152.686 175.128 152.073 174.084 151.471L173.868 151.346C156.927 141.571 141.408 139.829 129.504 144.865C129.194 144.997 128.912 145.165 128.645 145.354L115.021 153.094L124.644 160.579L129.077 161.202C132.763 167.544 138.587 170.991 142.532 169.362C144.952 168.364 147.586 167.771 150.387 167.576L175.759 182.472L203.549 220.079L218.032 211.85L218.033 211.849C222.102 209.508 221.847 201.628 217.443 194.819C206.437 177.802 192.457 163.021 177.174 153.367Z" fill="#DC2730"/>
<path d="M173.868 196.75C165.255 191.78 157.539 191.734 152.323 195.674H152.322L141.647 201.891L143.103 212.496L145.512 216.523C146.33 226.711 150.775 237.75 157.302 246.898C161.644 252.996 166.911 258.225 172.602 261.797L179.282 272.961L193.103 265.052C198.805 262.337 202.397 255.758 202.397 246.126C202.397 238.998 200.428 231.257 197.085 223.948C191.909 212.607 183.451 202.278 173.868 196.75Z" fill="#DC2730"/>
<path d="M203.55 220.079H203.549C199.929 222.163 194.178 219.059 190.253 213.009C182.482 201.028 172.629 190.617 161.864 183.776C161.038 183.254 160.212 182.754 159.386 182.278C147.434 175.382 136.482 174.114 128.05 177.592C124.091 179.226 118.239 175.755 114.554 169.37C110.543 162.421 110.731 154.91 115.021 153.094C126.925 148.058 142.444 149.801 159.386 159.575L159.602 159.7C160.646 160.303 161.668 160.915 162.691 161.597C177.974 171.25 191.954 186.032 202.96 203.049C207.365 209.857 207.62 217.738 203.55 220.079Z" fill="#B0B0B0"/>
<path d="M231.452 203.981L231.432 203.993C227.771 206.112 221.843 202.977 218.002 196.749C202.485 171.601 181.917 149.873 159.386 136.874C136.569 123.709 115.773 121.825 100.192 129.397C96.3593 131.258 90.3883 127.555 86.7044 121.179L86.6815 121.14C82.7549 114.343 82.8196 106.945 86.9097 104.971C106.008 95.7544 131.473 98.0675 159.386 114.171C186.961 130.082 212.146 156.69 231.164 187.466C235.307 194.168 235.394 201.701 231.452 203.981Z" fill="#B0B0B0"/>
<path d="M259.266 187.923L259.259 187.927C255.548 190.069 249.549 186.801 245.706 180.462C223.051 143.09 192.696 110.688 159.386 91.4697C125.782 72.0821 95.1986 69.5774 72.475 81.1466C68.6374 83.1007 62.6052 79.4444 58.8783 72.9935L58.8714 72.9818C54.9441 66.1837 55.0513 58.8623 59.0983 56.807C85.3296 43.4909 120.632 46.409 159.386 68.7672C197.824 90.9445 232.836 128.307 259 171.422C263.086 178.156 263.209 185.649 259.266 187.923Z" fill="url(#paint0_linear)"/>
<path d="M231.452 203.981L231.432 203.993C227.771 206.112 221.843 202.977 218.002 196.749C202.485 171.601 181.917 149.873 159.386 136.874C136.569 123.709 115.773 121.825 100.192 129.397C96.3593 131.258 90.3883 127.555 86.7044 121.179L86.6815 121.14C82.7549 114.343 82.8196 106.945 86.9097 104.971C106.008 95.7544 131.473 98.0675 159.386 114.171C186.961 130.082 212.146 156.69 231.164 187.466C235.307 194.168 235.394 201.701 231.452 203.981Z" fill="#B0B0B0"/>
<path d="M203.55 220.079H203.549C199.929 222.163 194.178 219.059 190.253 213.009C182.482 201.028 172.629 190.617 161.864 183.776C161.038 183.254 160.212 182.754 159.386 182.278C147.434 175.382 136.482 174.114 128.05 177.592C124.091 179.226 118.239 175.755 114.554 169.37C110.543 162.421 110.731 154.91 115.021 153.094C126.925 148.058 142.444 149.801 159.386 159.575L159.602 159.7C160.646 160.303 161.668 160.915 162.691 161.597C177.974 171.25 191.954 186.032 202.96 203.049C207.365 209.857 207.62 217.738 203.55 220.079Z" fill="#B0B0B0"/>
<path d="M231.452 203.981L231.432 203.993C227.771 206.112 221.843 202.977 218.002 196.749C202.485 171.601 181.917 149.873 159.386 136.874C136.569 123.709 115.773 121.825 100.192 129.397C96.3593 131.258 90.3883 127.555 86.7044 121.179L86.6815 121.14C82.7549 114.343 82.8196 106.945 86.9097 104.971C106.008 95.7544 131.473 98.0675 159.386 114.171C186.961 130.082 212.146 156.69 231.164 187.466C235.307 194.168 235.394 201.701 231.452 203.981Z" fill="url(#paint1_linear)"/>
<path d="M203.55 220.079H203.549C199.929 222.163 194.178 219.059 190.253 213.009C182.482 201.028 172.629 190.617 161.864 183.776C161.038 183.254 160.212 182.754 159.386 182.278C147.434 175.382 136.482 174.114 128.05 177.592C124.091 179.226 118.239 175.755 114.554 169.37C110.543 162.421 110.731 154.91 115.021 153.094C126.925 148.058 142.444 149.801 159.386 159.575L159.602 159.7C160.646 160.303 161.668 160.915 162.691 161.597C177.974 171.25 191.954 186.032 202.96 203.049C207.365 209.857 207.62 217.738 203.55 220.079Z" fill="#B0B0B0"/>
<path d="M203.55 220.079H203.549C199.929 222.163 194.178 219.059 190.253 213.009C182.482 201.028 172.629 190.617 161.864 183.776C161.038 183.254 160.212 182.754 159.386 182.278C147.434 175.382 136.482 174.114 128.05 177.592C124.091 179.226 118.239 175.755 114.554 169.37C110.543 162.421 110.731 154.91 115.021 153.094C126.925 148.058 142.444 149.801 159.386 159.575L159.602 159.7C160.646 160.303 161.668 160.915 162.691 161.597C177.974 171.25 191.954 186.032 202.96 203.049C207.365 209.857 207.62 217.738 203.55 220.079Z" fill="#B0B0B0"/>
<path d="M203.55 220.079H203.549C199.929 222.163 194.178 219.059 190.253 213.009C182.482 201.028 172.629 190.617 161.864 183.776C161.038 183.254 160.212 182.754 159.386 182.278C147.434 175.382 136.482 174.114 128.05 177.592C124.091 179.226 118.239 175.755 114.554 169.37C110.543 162.421 110.731 154.91 115.021 153.094C126.925 148.058 142.444 149.801 159.386 159.575L159.602 159.7C160.646 160.303 161.668 160.915 162.691 161.597C177.974 171.25 191.954 186.032 202.96 203.049C207.365 209.857 207.62 217.738 203.55 220.079Z" fill="url(#paint2_linear)"/>
<path d="M182.602 232.178C177.427 220.836 168.967 210.507 159.386 204.98C149.49 199.271 140.774 200.053 135.678 205.921C132.628 209.406 130.858 214.673 130.858 221.439C130.858 232.495 135.58 244.98 142.82 255.128C147.483 261.678 153.207 267.251 159.386 270.815C165.249 274.198 170.699 275.3 175.243 274.403C182.877 272.926 187.914 265.776 187.914 254.356C187.914 247.227 185.946 239.486 182.602 232.178Z" fill="url(#paint3_linear)"/>
<path d="M253.127 240.119C253.086 240.62 253.019 241.155 253.255 241.601C253.416 241.905 253.697 242.126 253.984 242.315C256.305 243.846 259.574 243.774 261.825 242.143C262.16 241.9 262.488 241.604 262.609 241.208C262.777 240.653 262.498 240.073 262.247 239.551C260.474 235.861 259.788 231.758 259.123 227.72C259.159 227.972 256.576 229.491 256.27 229.704C255.282 230.392 254.293 231.078 253.304 231.766C252.659 232.215 251.983 232.62 252.032 233.49C252.084 234.424 252.648 235.371 252.853 236.284C253.137 237.539 253.233 238.836 253.127 240.119Z" fill="#E27D26"/>
<path d="M269.956 253.474C268.559 253.474 268.131 254.5 268.588 255.198C267.877 256.053 267.875 256.902 267.453 267.067C267.36 269.326 267.557 271.692 267.59 273.314C267.6 273.784 267.691 275.135 268.104 275.503L268.103 275.505C269.105 276.385 271.182 275.763 271.731 276.234C272.253 276.683 272.818 276.601 273.136 276.27C273.868 275.504 273.533 267.686 273.568 262.742C273.618 254.454 274.861 255.058 271.18 253.735C270.778 253.593 270.392 253.474 269.956 253.474Z" fill="#ECA76C"/>
<path d="M228.404 260.687C226.986 260.687 225.986 261.354 225.554 262.779C225.02 264.502 226.767 266.1 226.49 265.767C234.087 274.949 237.382 275.265 242.097 278.154C248.939 282.345 248.002 280.732 252.556 282.044C258.448 283.77 259.264 284.395 264.799 284.614C266.417 284.678 276.341 285.278 278.564 284.462C280.397 283.788 279.888 281.944 279.074 280.875C278.715 280.403 277.98 279.672 278.055 279.749C277.375 279.051 276.787 278.273 276.132 277.503C274.768 275.907 271.182 272.983 268.725 271.811C266.747 270.86 264.118 270.327 262.018 270.05L262.13 270.071C259.989 269.774 255.763 269.538 253.602 269.991C251.732 268.479 249.684 266.497 245.524 264.758C238.619 261.844 231.015 260.687 228.404 260.687Z" fill="#3B2B72"/>
<path d="M228.044 260.537C224.426 260.537 220.335 265.86 226.728 273.78C229.14 277.058 239.032 288.633 239.686 289.246C241.179 290.652 241.686 290.703 242.461 291.645C242.835 292.1 246.325 298.057 248.323 299.899C248.62 300.171 249.677 300.875 250 301.111C254.562 304.799 257.17 301.151 255.835 297.535C254.904 295.02 253.678 294.898 251.826 290.529L251.829 290.537C249.527 285.153 248.093 286.246 245.976 281.433L245.987 281.469C243.675 275.872 242.7 273.329 238.404 267.852L238.44 267.904C238.379 267.824 237.927 267.255 237.696 266.958L237.731 267.015C236.894 265.93 234.169 263.051 233.593 262.515C231.401 260.474 230.081 260.805 229.14 260.647C228.814 260.593 228.429 260.537 228.044 260.537Z" fill="#6456BF"/>
<path d="M223.148 295.02C223.151 295.016 223.155 295.009 223.155 295.009C223.276 295.062 223.405 295.109 223.539 295.151C223.404 295.11 223.273 295.068 223.148 295.02ZM252.187 284.083L252.359 284.019C252.356 284.02 252.187 284.083 252.187 284.083ZM270.993 276.616C268.602 276.627 265.637 278.16 263.895 278.938L263.933 278.923C263.932 278.923 260.807 280.339 260.807 280.339C260.121 280.621 259.37 280.911 258.648 281.226L258.689 281.212C258.685 281.214 256.363 282.29 256.368 282.29C256.343 282.301 253.697 283.428 253.672 283.438L253.742 283.416C253.669 283.443 252.508 283.941 252.469 283.96L252.501 283.947C252.435 283.977 252.209 284.073 252.142 284.102L252.177 284.093C248.284 285.785 246.518 285.535 244.544 286.096C244.036 286.239 240.521 287.036 239.295 287.036C238.962 287.036 238.447 287.032 237.916 286.831C237.784 286.777 237.026 286.511 237.026 286.511C235.068 285.587 233.984 285.92 233.984 285.92C233.984 285.92 232.44 286.047 230.676 287.564C229.217 288.822 228.753 288.805 227.873 289.409C225.503 291.034 225.882 290.46 224.14 291.912C222.6 293.195 221.442 293.822 221.351 295.123C221.316 295.596 221.506 296.079 222.069 296.481C222.843 297.028 225.671 297.473 226.871 297.508C229.051 297.57 230.872 296.896 232.077 296.534C234.332 295.857 235.512 295.274 238.187 294.888C240.179 294.602 256.37 293.932 258.337 293.679C258.67 293.636 267.512 292.242 271.931 290.097C274.424 288.893 274.96 289.043 277.23 287.471C277.568 287.238 278.687 286.306 278.888 286.059C280.051 284.619 280.113 284.155 280.017 283.1C279.64 279.038 275.295 276.616 270.993 276.616Z" fill="#AEACF2"/>
<path d="M232.739 240.653L225.98 240.086C225.717 240.064 225.526 240.147 225.415 240.295L225.41 240.292L225.064 240.816C225.064 240.816 225.247 240.929 225.381 241.008C225.395 241.051 225.408 241.092 225.429 241.137L230.904 252.755C231.2 253.384 231.929 253.937 232.531 253.986L239.021 254.529L239.017 254.539L239.541 254.83L239.894 254.297L239.893 254.295C240 254.105 239.993 253.825 239.84 253.502L234.366 241.884C234.07 241.254 233.342 240.702 232.739 240.653Z" fill="#F2A71D"/>
<path d="M238.981 255.022L232.22 254.456C231.619 254.405 230.891 253.855 230.594 253.224L225.119 241.606C224.823 240.977 225.07 240.506 225.672 240.556L232.43 241.121C233.031 241.172 233.759 241.724 234.057 242.355L239.531 253.972C239.828 254.602 239.581 255.073 238.981 255.022Z" fill="#57A9F2"/>
<path d="M233.577 244.699C233.257 244.699 232.873 244.874 232.569 245.031C232.199 245.223 231.991 245.588 231.737 245.933L231.771 245.898C231.105 246.723 230.255 248.261 229.856 249.205C228.93 251.42 230.608 256.17 231.326 257.411L231.323 257.412C232.712 261.133 231.503 260.561 236.275 264.811C237.218 265.649 238.116 266.832 239.529 267.506C239.957 267.708 239.915 267.888 240.376 268.113C243.335 269.557 245.123 261.453 245.649 258.183C246.217 254.629 246.972 254.204 245.681 251.963C245.146 251.031 244.713 248.187 244.559 247.115C244.387 245.758 244.649 244.955 243.9 244.955C242.814 244.955 242.443 248.581 242.376 249.658C242.214 252.355 241.619 253.919 241.446 254.871C241.202 256.24 240.592 259.746 239.793 260.951C239.142 260.539 235.727 255.877 235.6 255.544C235.598 255.54 235.453 255.161 235.449 255.161C235.449 255.161 235.531 253.828 235.531 253.825C235.594 249.549 235.533 251.936 235.46 249.198C235.407 247.222 235.579 244.699 233.577 244.699Z" fill="#ECA76C"/>
<path d="M248.666 234.365C243.226 234.365 243.181 239.302 242.152 241.812L242.198 241.715C241.647 243.006 241.238 245.127 241.025 245.869C240.746 246.829 240.484 247.995 241.248 248.637C242.492 249.69 243.197 248.096 244.445 252.764C244.893 254.43 244.853 253.986 244.822 257.041C244.803 258.698 244.788 259.582 244.504 261.96L244.513 261.931C243.646 267.05 243.107 265.19 248.24 268.713C248.646 268.992 248.965 269.134 249.188 269.349C249.676 269.819 249.769 269.8 250.609 270.385C253.749 272.521 253.147 272.46 256.213 272.814C257.058 272.917 264.848 272.817 267.456 272.286C269.098 271.954 268.268 269.973 268.684 265.67C268.692 265.598 268.811 262.464 268.811 261.716C273.213 262.431 274.937 262.861 275.565 261.781C275.695 261.56 276.452 255.458 276.261 252.839C276.216 252.221 275.735 249.344 275.789 249.676C275.452 247.591 274.619 244.944 272.789 243.896C272.418 243.686 271.424 243.338 271.615 243.409C271.048 243.126 271.427 243.22 269.899 242.541C267.969 241.682 267.594 241.942 266.24 240.965C264.888 239.89 264.822 239.923 263.893 239.491C263.56 239.333 262.877 238.798 262.067 238.798C260.15 238.798 261.09 241.325 256.565 240.861C255.041 240.598 254.24 239.76 253.985 238.2C254.8 237.344 254.15 236.026 252.921 235.628C252.783 235.584 252.687 235.518 252.546 235.43C251.039 234.506 249.022 234.365 248.666 234.365Z" fill="#79C3F2"/>
<path d="M251.379 218.928C250.608 218.928 249.587 219.12 248.292 220.122C244.93 221.32 244.459 226.831 245.6 229.985C246.471 232.386 249.498 240.222 252.033 240.222C253.886 240.222 255.886 237.519 256.635 235.15C257.538 232.297 259.297 227.798 257.005 222.819C256.467 221.643 254.316 219.329 252.752 219.045C252.34 218.97 251.729 218.928 251.379 218.928Z" fill="#ECA76C"/>
<path d="M253.009 213.683C252.594 213.683 251.024 214.011 250.719 214.103C248.003 214.103 247.975 215.121 246.145 216.943C244.349 218.729 243.251 222.605 244.592 223.673C245.892 224.707 246.734 224.039 249.718 223.611L249.637 223.618C250.146 223.548 250.271 223.481 250.842 223.481C253.169 223.481 255.261 225.133 255.798 228.405C255.965 229.432 255.971 231.384 255.954 232.365C255.905 235.49 257.811 235.918 259.172 234.351C259.391 234.095 259.786 233.617 260.057 233.264L260.03 233.295C262.776 229.572 264.015 221.469 259.546 216.618C257.547 214.448 258.398 215.158 255.062 213.977C254.458 213.764 253.719 213.704 253.076 213.685C253.054 213.683 253.03 213.683 253.009 213.683Z" fill="#3B2B72"/>
<path d="M258.585 229.196C258.56 229.356 258.555 229.38 258.585 229.196V229.196ZM256.696 227.226C256.266 227.272 255.924 227.583 255.64 227.923C255.239 228.401 254.982 228.772 254.879 229.18C254.76 229.641 254.593 230.224 254.748 230.524C254.996 231.005 255.195 230.612 255.034 231.102C254.13 232.39 255.605 233.512 256.647 232.868C258.031 232.023 258.821 229.206 258.564 228.444C258.239 227.488 257.508 227.137 256.696 227.226Z" fill="#ECA76C"/>
<path d="M143.406 101.209C143.002 101.209 142.712 101.443 142.54 101.638C142.151 101.364 141.602 101.605 141.563 102.151C141.485 103.273 141.524 103.615 140.833 105.291L140.838 105.282C139.145 109.298 138.271 108.59 136.385 112.92V112.919L136.334 113.038L136.389 112.922C135.967 113.873 135.585 115.279 135.644 115.085C135.164 116.691 135.338 117.295 135.917 117.717C136.851 118.409 139.092 117.302 140.036 116.588C143.766 113.78 144.543 112.594 144.409 112.729C144.763 112.276 144.829 112.157 145.015 111.738C146.518 108.377 146.15 107.477 145.481 105.033C144.849 102.728 145.012 102.745 144.729 102.122C144.481 101.576 143.949 101.209 143.406 101.209Z" fill="#9E90F2"/>
<path d="M136.885 94.3372C136.31 94.3372 134.794 94.9344 134.388 96.0578C134.268 96.1473 134.195 96.2913 134.195 96.442C134.194 96.6872 134.194 96.7981 134.194 96.7981C134.043 97.5937 134.042 98.4575 133.972 99.613C133.32 102.168 130.43 104.707 129.305 107.335L129.329 107.291C127.859 110.605 128.966 113.123 136.234 106.978L136.073 107.096C136.546 106.739 136.966 106.39 137.651 105.725C139.92 103.524 140.85 102.598 139.514 99.7628C138.146 96.8438 138.963 95.3585 137.591 94.5259C137.397 94.4072 137.133 94.3372 136.885 94.3372Z" fill="#9E90F2"/>
<path d="M164.343 58.7865C162.966 58.7865 162.483 59.3156 161.59 60.2319C161.265 60.5684 160.577 61.1092 161.064 61.9117C155.407 66.0758 150.163 71.3458 149.287 72.6336C147.375 75.4262 143.413 85.5013 141.012 96.1201C139.798 101.497 139.251 102.51 139.076 104.181C138.962 105.21 139.596 106.223 140.466 106.613C141.533 107.091 142.186 107.118 144.323 107.111C145.02 107.111 145.508 107.146 146.052 106.349C146.953 105.028 147.232 100.854 147.793 99.0421C149.08 94.877 153.267 88.4719 154.207 84.2261C155.199 79.7566 154.2 79.3977 158.135 77.2218C159.202 76.6323 159.473 76.4602 160.165 75.967C161.839 74.7677 166.471 72.4673 167.855 71.4781C169.73 70.1241 171.987 68.9121 171.211 65.4756C170.801 63.6723 170.367 63.4826 169.458 62.6081C168.292 61.4876 168.224 61.7152 167.701 60.8106C167.124 59.8088 166.612 59.1862 165.206 58.8808C164.922 58.8186 164.631 58.7865 164.343 58.7865Z" fill="#3B2B72"/>
<path d="M153.88 55.3781C152.572 55.3781 151.454 56.2943 148.082 58.1473C144.787 59.9604 145.388 60.0314 142.171 62.1033C135.278 66.5445 133.967 68.1699 133.164 69.6912C131.485 72.8573 131.397 74.2346 131.295 75.7053C131.274 76.0059 131.088 86.8562 132.3 94.2895C132.953 98.2775 132.716 98.3105 133.952 98.7473C134.365 98.8932 135.309 98.9992 135.088 98.9681C136.18 99.1208 136.882 99.2064 138.22 98.5605C139.226 98.0742 139.402 97.8223 139.977 91.2021C140.721 82.8234 141.501 80.9102 140.822 78.8344C140.376 77.4688 139.604 76.323 140.224 74.257C140.424 73.8942 140.944 73.3747 141.251 73.0936C143.557 70.98 144.665 71.0004 145.793 70.2787C146.597 69.7641 148.16 68.6008 148.284 68.486L148.286 68.488L148.312 68.4636L148.314 68.4656L148.344 68.4384L148.342 68.4364C148.342 68.4364 150.665 66.8072 150.666 66.8072C157.684 61.8309 159.201 62.6694 159.315 60.4721C159.343 59.9273 159.068 59.5879 158.515 58.6239C157.619 57.0638 157.386 57.3215 156.648 56.8108C155.255 55.6563 154.652 55.3781 153.88 55.3781Z" fill="#3B2B72"/>
<path d="M183.584 50.5332C183.534 49.5148 182.973 44.5395 182.973 44.5395C182.973 44.5337 182.941 44.3226 182.91 44.1105C182.882 43.8965 182.851 43.6845 182.851 43.6796V43.7215C182.851 43.7156 182.848 43.6485 182.843 43.6485C182.84 43.6427 182.84 43.631 182.837 43.631L182.834 43.5834L182.831 43.5863C182.222 33.2855 180.161 34.4391 175.258 30.4511C173.875 29.3257 172.656 29.0203 171.372 28.1546C168.93 26.5078 167.017 30.1019 166.226 26.8356C166.48 26.3756 166.367 25.8056 165.724 25.4564C165.487 25.3289 165.064 25.008 164.846 24.8465C164.2 24.3621 164.231 24.4603 163.274 24.0236C162.704 23.7639 162.323 23.5859 161.608 23.4964C161.442 23.473 161.278 23.4614 161.118 23.4614C159.277 23.4614 157.438 24.7988 156.286 26.254C154.569 28.4231 154.49 29.4891 152.278 33.3419C150.195 36.972 150.458 36.9866 149.644 39.0759C149.153 40.3395 149.289 40.7859 149.611 41.1662C149.763 41.3501 149.96 41.5183 150.152 41.7557C151.804 43.8032 153.382 44.4578 154.369 44.8439C154.68 44.9685 154.93 45.0638 155.108 45.1688C155.289 46.2096 152.428 52.5807 151.761 54.3043C151.327 55.4297 150.596 56.5152 150.186 57.7534C150.183 57.7651 150.181 57.7729 150.181 57.7817C150.051 58.1766 149.957 58.589 149.918 59.0228C149.915 59.0286 149.915 59.0345 149.915 59.0374C149.87 59.5189 149.893 60.0266 150.008 60.5684C150.287 61.8494 152.428 62.8931 153.632 63.397C153.632 63.397 155.064 64.286 156.858 65.3715C158.589 66.4123 160.655 67.6389 162.1 68.4199C163.506 69.1738 164.115 69.6932 164.084 69.6698C164.087 69.6728 164.09 69.6757 164.095 69.6786C164.662 70.0823 167.006 71.1289 167.284 71.2047C168.518 71.5345 170.661 70.6999 172.252 69.0561C172.5 68.8012 172.687 68.6125 172.836 68.4598C173.387 67.9015 173.449 67.8276 174.132 66.9006C175.631 64.9426 175.817 62.8698 175.944 61.722C175.956 61.6092 175.97 61.5051 175.981 61.4088C175.981 61.4088 176.151 59.8797 176.151 59.8778C176.771 54.7527 176.554 55.8946 176.534 53.0661C176.531 52.6741 176.466 52.604 176.684 52.6517C176.855 52.6906 177.209 52.8034 177.909 52.8939C178.62 52.9844 179.314 52.854 180.017 52.7217C180.982 52.5408 181.77 52.4679 182.36 52.3103C183.209 52.0817 183.644 51.681 183.584 50.5332Z" fill="#6456BF"/>
<path d="M172.082 15.0438C171.662 15.0438 171.42 15.2461 171.211 15.5243C170.4 16.6001 168.769 18.2167 168.17 18.7011C166.437 19.9519 163.824 20.378 163.376 21.3711C163.17 21.8565 163.088 22.3564 163.535 22.8408C163.832 24.0197 164.19 25.2229 164.364 26.4475V26.432C164.424 26.895 164.56 28.8686 164.546 29.3374C164.51 30.5134 164.257 30.6544 164.594 31.2867C165.289 32.6056 169.094 32.5366 170.542 32.1562C170.543 32.1562 171.231 31.9763 171.231 31.9763C171.704 31.9296 172.299 31.987 172.606 31.1388C172.701 30.6068 172.641 30.4638 172.51 29.7216C171.974 26.6654 172.268 25.1636 172.415 24.1374L172.411 24.153C173.318 17.8626 172.988 18.6699 173.062 16.7567C173.084 16.1672 173.208 15.0982 172.082 15.0438Z" fill="#E27D26"/>
<path d="M154.369 44.844C153.691 45.8177 153.22 46.302 152.309 49.4127C151.442 52.3804 151.967 51.255 151.08 54.2781C150.677 55.6574 150.401 56.7896 150.186 57.7535C150.183 57.7652 150.181 57.773 150.181 57.7817C150.079 58.2301 149.994 58.6396 149.918 59.0229C149.915 59.0287 149.915 59.0345 149.915 59.0375C149.571 60.7319 149.373 61.8913 148.789 63.2317C147.042 67.4337 144.925 67.8938 144.405 66.923C143.726 65.6595 144.12 61.94 144.634 60.8622C144.634 60.8622 144.903 60.3058 145.049 59.9819C145.342 59.2573 146.35 55.6301 146.681 53.7062C146.681 53.7062 146.895 52.8687 147.208 51.0157C147.448 49.5382 147.406 49.76 147.491 49.3592C147.654 48.5529 147.88 47.0111 147.88 47.0111L147.883 47.0024C147.88 47.0024 147.88 47.0024 147.88 47.0024C147.92 46.7398 147.965 46.1922 147.996 45.8537C148.174 43.8509 148.84 42.4104 149.611 41.1663C149.763 41.3501 149.96 41.5184 150.152 41.7557C151.804 43.8032 153.382 44.4578 154.369 44.844Z" fill="#ECA76C"/>
<path d="M164.129 8.55106C162.695 8.55106 160.971 9.3866 160.185 10.3048C158.2 12.6198 156.455 20.9655 161.54 27.6537C162.041 28.3365 163.126 31.0814 166.323 28.5057C166.674 28.2236 168.076 26.9339 168.003 26.999C171.112 24.1928 172.278 19.2389 171.497 15.2256C170.899 12.149 169.505 10.725 167.699 9.58891C166.547 8.87593 165.271 8.55106 164.129 8.55106Z" fill="#ECA76C"/>
<path d="M166.419 4.44634C165.504 4.44634 164.804 4.52705 161.963 6.03083C161.021 6.5269 158.082 7.83032 157.768 10.0403C157.751 10.156 157.621 11.0402 157.56 11.1413C157.401 11.4147 157.542 12.3883 158.177 12.9038C158.467 13.1412 158.736 13.434 159.18 13.6635C159.548 13.8581 161.021 14.0458 160.739 14.001C163.799 14.4796 164.579 12.7025 166.48 12.8844C166.709 12.9253 167.115 13.0215 167.309 13.149C168.252 13.9952 168.669 15.1157 168.823 15.3978L168.82 15.3988C170.769 20.2068 167.546 26.9504 169.852 26.9504C171.185 26.9504 173.03 24.2094 173.756 23.1005C175.673 20.1756 177.067 13.9894 174.989 9.91381C173.106 6.21176 172.026 5.81002 168.549 4.69241C167.997 4.51246 167.103 4.46774 166.561 4.44829C166.511 4.44829 166.466 4.44634 166.419 4.44634Z" fill="#D86F13"/>
<path d="M171.215 20.1338C171.193 20.27 171.189 20.2895 171.215 20.1338V20.1338ZM169.612 18.4618C169.248 18.5017 168.957 18.7663 168.716 19.0532C168.376 19.4588 168.158 19.774 168.071 20.1202C167.97 20.5113 167.828 21.0054 167.96 21.2602C168.17 21.6687 168.338 21.3351 168.203 21.7505C167.436 22.8428 168.687 23.795 169.572 23.2484C170.745 22.5325 171.414 20.1426 171.196 19.4958C170.921 18.6855 170.301 18.3869 169.612 18.4618Z" fill="#ECA76C"/>
<path d="M129.358 65.5194L147.077 56.3032L169.154 67.2489H171.22V68.2838H171.201L153.584 77.8979L129.358 65.5194Z" fill="#3B2B72"/>
<path d="M153.584 76.9173L171.22 67.2926L147.077 55.3236L129.358 64.5389L153.584 76.9173Z" fill="#9E90F2"/>
<path d="M119.959 48.0733L120.734 47.4917L144.863 59.8866L154.442 77.43L153.584 77.8979L151.573 76.4359L152.161 76.1937L130.134 64.9378L121.87 49.6005L121.539 49.9458L119.959 48.0733Z" fill="#6456BF"/>
<path d="M153.584 77.8979L144.088 60.4683L119.959 48.0733L129.358 65.5194L153.584 77.8979Z" fill="#9E90F2"/>
<path d="M148.506 63.3551L153.484 66.2275C154.044 66.5514 154.892 66.5864 155.377 66.3063L158.906 64.2694C159.392 63.9893 159.331 63.501 158.771 63.1771L153.792 60.3048C153.233 59.9819 152.385 59.9468 151.9 60.227L148.37 62.2628C147.885 62.5429 147.945 63.0322 148.506 63.3551Z" fill="#6456BF"/>
<path d="M172.836 68.4598C172.631 68.4744 172.419 68.488 172.202 68.4997C171.778 68.525 168.877 68.4432 165.131 69.4276C164.727 69.5317 164.385 69.6134 164.095 69.6786C162.749 69.9694 162.495 69.8536 162.044 69.7768C160.192 69.6192 159.271 70.2009 158.888 70.3478L158.913 70.3419C157.533 70.945 156.74 70.8711 155.585 71.3117C154.936 71.6054 154.459 71.9741 153.751 71.9498C152.848 71.8982 151.811 71.3535 152.1 70.5783C152.213 70.2768 153.386 67.7273 154.815 66.5737C155.244 66.2294 156.022 65.7499 156.858 65.3715C157.606 65.033 158.399 64.7762 159.032 64.7714C159.083 64.7655 159.717 64.7344 160.522 64.8608C163.522 65.2032 162.148 65.1429 169.816 63.6119C172.283 63.1178 174.659 62.2861 175.944 61.722C176.52 61.471 176.879 61.2707 176.929 61.1802C176.929 61.1802 176.946 60.8592 176.926 59.9449C176.87 56.949 176.757 54.5494 176.684 52.6517C176.855 52.6906 177.209 52.8034 177.908 52.8939C178.62 52.9843 179.314 52.854 180.017 52.7217C180.982 52.5408 181.77 52.4678 182.36 52.3103C182.342 52.8462 182.331 53.4357 182.326 54.0874C182.255 65.2052 183.437 67.7799 172.836 68.4598Z" fill="#ECA76C"/>
<path d="M57.2961 197.874C57.6306 197.823 57.9618 197.77 58.2892 197.706C60.961 197.189 63.6735 196.82 66.199 195.752C67.3312 195.274 68.4099 194.664 69.5776 194.281C70.7457 193.896 72.0498 193.752 73.1878 194.214C72.1391 195.037 70.8768 195.585 69.5586 195.79C72.4491 195.745 75.3357 195.498 78.1912 195.053C78.3414 195.264 78.2463 195.557 78.1379 195.792C77.6026 196.961 76.8429 198.027 75.9136 198.916C75.4665 199.344 74.9707 199.736 74.3939 199.96C73.7741 200.201 73.0935 200.236 72.4285 200.216C70.5734 200.165 68.44 199.406 66.7039 200.059C65.8757 200.371 65.37 200.34 63.9818 201.098C61.8956 202.239 59.8017 203.366 57.7093 204.494C55.3561 205.762 49.792 208.726 46.9361 207.536C45.351 206.874 44.5643 205.872 44.7582 204.167C44.9536 202.45 46.4331 201.536 47.9635 200.732C50.2517 199.529 54.7923 198.244 57.2961 197.874Z" fill="#ECA76C"/>
<path d="M55.4627 175.356C55.6661 176.22 55.6273 177.116 55.5828 178.001C55.1471 186.631 54.1965 195.333 51.1741 203.549C50.8479 204.436 50.4855 205.336 49.8221 206.055C49.1578 206.773 48.1267 207.286 47.1065 207.144C46.0928 207.003 45.2944 206.245 44.9066 205.392C44.5187 204.537 44.4704 203.589 44.4411 202.664C44.1925 194.72 44.9872 186.714 47.2274 179.009C47.7525 177.202 48.4271 175.311 49.9897 174.078C50.8605 173.39 52.3186 172.754 53.5068 173.003C54.6375 173.24 55.2375 174.396 55.4627 175.356Z" fill="#ECA76C"/>
<path d="M49.7616 207.508C50.1822 207.321 50.6156 207.239 51.0502 207.252C50.9069 206.438 50.7126 205.647 50.7122 204.813C50.7106 203.864 51.2673 202.959 51.5525 202.069C52.1381 200.242 52.3289 198.429 52.7346 196.532C52.9095 195.711 53.0529 194.949 53.0566 194.101C53.0604 193.233 53.2437 191.68 52.8221 190.907C52.413 190.158 51.0776 190.398 50.3145 190.669C50.319 190.677 50.3244 190.685 50.329 190.693C50.3228 190.707 50.3172 190.727 50.3111 190.761C50.9655 192.405 50.8734 194.954 50.7898 196.743C50.6803 199.084 50.0274 201.294 49.4708 203.56C49.2274 204.551 48.7244 205.658 48.6913 206.672C49.1464 206.518 49.4951 206.866 49.7616 207.508Z" fill="#E27D26"/>
<path d="M84.0398 192.175C84.1451 191.854 84.2443 191.533 84.3348 191.212C85.0705 188.594 85.9564 186.006 86.1332 183.271C86.2127 182.045 86.1511 180.808 86.331 179.593C86.5101 178.377 86.9659 177.147 87.8906 176.338C88.1565 177.644 88.0807 179.017 87.674 180.287C88.9272 177.685 90.0005 174.995 90.883 172.244C91.1404 172.206 91.359 172.421 91.5214 172.625C92.326 173.627 92.9392 174.783 93.3175 176.011C93.4993 176.602 93.6285 177.222 93.5708 177.836C93.508 178.499 93.2339 179.122 92.9187 179.707C92.0404 181.341 90.4054 182.906 90.2119 184.751C90.1198 185.63 89.8651 186.067 89.9214 187.648C90.0065 190.023 90.0751 192.399 90.1465 194.774C90.2263 197.445 90.3834 203.742 88.0382 205.759C86.7363 206.88 85.4869 207.134 84.0484 206.195C82.6003 205.251 82.4451 203.519 82.4124 201.792C82.3626 199.209 83.2489 194.576 84.0398 192.175Z" fill="#ECA76C"/>
<path d="M56.7258 176.944C56.9563 178.033 56.9559 179.156 56.9551 180.269C56.9539 181.149 56.9535 182.03 56.9524 182.909C56.9517 183.707 56.9509 184.505 56.8809 185.299C56.8113 186.081 56.676 186.855 56.5399 187.629C56.3079 188.95 56.076 190.274 55.8437 191.596C51.0012 191.932 46.0583 190.606 42.0325 187.894C42.5181 185.825 43.1511 183.79 43.9253 181.812C44.6834 179.874 45.5948 177.962 46.9731 176.404C48.3259 174.875 50.4479 173.578 52.4673 173.132C54.6932 172.638 56.3322 175.085 56.7258 176.944Z" fill="#AEACF2"/>
<path d="M70.6635 163.822C70.2293 164.8 69.5658 165.829 68.5156 166.039C68.1753 166.107 67.2681 166.039 66.3039 165.901C66.0716 165.87 65.835 165.834 65.6054 165.794C64.6343 165.627 63.7385 165.409 63.4526 165.207C62.8146 164.76 61.6796 162.89 61.5765 162.63C61.5484 162.561 61.5135 162.485 61.4708 162.402C61.391 162.238 61.2831 162.049 61.1709 161.846C60.8211 161.231 60.4039 160.504 60.4039 160.052C60.4039 156.771 61.7922 155.909 63.0119 154.306C64.2332 152.705 66.0039 151.579 67.9034 150.911C68.9304 150.55 70.1779 150.267 71.254 150.58C72.2156 150.859 72.0917 151.557 72.1403 152.42C72.3635 156.333 72.2722 160.193 70.6635 163.822Z" fill="#ECA76C"/>
<path d="M67.751 171.242C65.3708 173.805 61.5694 174.957 58.1645 174.145C57.1942 173.913 56.2463 173.533 55.2478 173.489C56.6287 172.599 57.3322 170.951 57.6462 169.339C58.0006 167.539 57.9535 165.653 57.4706 163.881C57.3743 163.527 56.5653 162.004 56.9383 161.725C57.255 161.49 59.0348 162.262 59.5454 162.25C60.1131 162.238 60.6454 162.067 61.1709 161.846C61.2576 161.81 61.3446 161.772 61.4309 161.732L61.4333 161.73C62.0199 161.465 62.594 161.161 63.199 160.966C63.326 160.923 63.4617 160.888 63.5906 160.923C63.6986 160.954 63.7879 161.031 63.872 161.106C64.6552 161.814 65.4408 162.52 66.2267 163.225C65.9663 163.998 65.767 164.795 65.6358 165.601C65.624 165.664 65.6146 165.727 65.6054 165.794C65.4902 166.557 65.4339 167.33 65.4363 168.104C65.4363 168.324 65.4435 168.546 65.4666 168.767C65.4929 169.05 65.5464 169.329 65.6449 169.597C65.9708 170.475 66.8172 171.139 67.751 171.242Z" fill="#ECA76C"/>
<path d="M65.6054 165.794C65.4902 166.557 65.4339 167.33 65.4363 168.104C65.4363 168.324 65.4435 168.546 65.4666 168.767C65.2393 168.641 65.0382 168.385 64.8735 168.24C64.5196 167.926 64.1982 167.609 63.8769 167.262C62.899 166.196 62.3268 164.853 61.8253 163.525C61.6937 163.176 61.5462 162.791 61.4709 162.402C61.4268 162.177 61.4078 161.953 61.431 161.732C61.431 161.73 61.431 161.73 61.431 161.728L61.4333 161.73C62.3036 162.649 62.9857 163.679 63.9591 164.504C64.4587 164.928 65.0496 165.297 65.6358 165.601C65.6944 165.634 65.7526 165.662 65.8115 165.693C65.9708 165.772 66.1396 165.834 66.3039 165.901C66.0716 165.87 65.8351 165.834 65.6054 165.794Z" fill="#E27D26"/>
<path d="M63.0454 164.836C63.6793 164.306 64.2964 163.748 64.7849 163.082C65.9613 161.481 66.2936 159.411 67.2788 157.684C67.9134 156.573 68.8191 155.616 69.8959 154.923C70.7905 154.346 71.8053 153.943 72.6027 153.237C73.8167 152.162 74.3756 150.484 74.37 148.863C74.3642 147.242 73.851 145.663 73.2057 144.175C72.5902 144.86 71.6228 145.092 70.7099 145.214C68.1906 145.553 65.6268 145.327 63.096 145.564C60.5653 145.801 57.9288 146.597 56.2782 148.528C54.5284 150.577 54.2258 153.465 54.1756 156.156C54.1498 157.515 54.1699 158.884 54.4398 160.216C54.7905 161.949 55.5688 163.592 56.6854 164.964C58.5428 167.244 61.0272 166.519 63.0454 164.836Z" fill="#6456BF"/>
<path d="M67.8838 157.095C67.6793 156.768 67.4192 156.457 67.0682 156.295C66.7177 156.133 66.2617 156.152 65.9869 156.424C65.7735 156.634 65.7028 156.957 65.7325 157.254C65.7613 157.553 65.8778 157.834 65.9933 158.111C66.3952 159.076 66.8066 160.058 67.4754 160.862C67.5918 161.002 67.7583 161.149 67.9324 161.096C68.0355 161.064 68.1051 160.97 68.1622 160.879C68.1622 160.639 68.4989 160.2 68.5671 159.939C68.6606 159.576 68.6914 159.203 68.6678 158.829C68.6435 158.836 68.7032 158.9 68.626 158.892C68.2549 158.467 68.2134 157.621 67.8838 157.095Z" fill="#ECA76C"/>
<path d="M53.1687 287.204C53.0729 287.921 52.9786 288.667 53.201 289.355C53.6474 290.737 55.2767 291.448 56.7246 291.323C58.1721 291.196 59.4762 290.433 60.7181 289.679C62.7496 288.445 64.7781 287.175 66.5198 285.559C67.1758 284.95 67.7997 284.276 68.1617 283.457C68.5225 282.639 68.5876 281.646 68.1422 280.87C67.4522 279.664 65.788 279.364 64.4412 279.709C63.0941 280.054 61.9294 280.881 60.6686 281.466C58.9519 282.263 57.942 282.865 56.1831 283.544C54.0824 284.355 53.4521 285.09 53.1687 287.204Z" fill="#57A9F2"/>
<path d="M50.8476 220.171C50.4818 224.661 51.2818 229.153 51.9369 233.609C52.625 238.294 53.1566 243.001 53.5293 247.719C53.6441 249.173 53.7437 250.636 53.5928 252.087C53.3494 254.432 52.4616 256.658 51.9863 258.967C51.1791 262.885 51.5734 266.94 51.9707 270.921C52.2342 273.557 52.4977 276.194 52.7612 278.83C53.0106 281.328 53.2646 283.85 54.0254 286.244C56.26 287.059 57.5114 286.155 58.2991 285.391C58.7105 278.471 59.8288 271.592 61.6314 264.897C62.1957 262.8 62.8284 260.715 63.193 258.574C63.6044 256.157 63.6698 253.696 63.8333 251.249C64.4584 241.906 66.5348 232.59 65.6975 223.264C65.3735 219.657 64.617 216.104 63.8618 212.563C63.7934 212.241 63.7154 211.902 63.4842 211.67C63.2253 211.407 62.834 211.339 62.4702 211.283C60.5527 210.992 58.6349 210.702 56.7174 210.41C55.5547 210.232 54.0209 209.673 53.0962 210.654C52.187 211.619 52.0049 213.78 51.7099 215.02C51.3068 216.715 50.9878 218.434 50.8476 220.171Z" fill="#6456BF"/>
<path d="M72.2365 291.012C72.1095 291.764 71.984 292.547 72.1875 293.285C72.6053 294.793 74.3259 295.635 75.892 295.571C77.4574 295.508 78.9018 294.757 80.2858 294.024C82.4478 292.878 84.6123 291.73 86.6679 290.405C87.8655 289.632 89.0743 288.741 89.6766 287.451C90.2788 286.16 90.04 284.371 88.8047 283.659C87.466 282.888 85.8166 283.676 84.3729 284.227C82.8181 284.822 81.1722 285.133 79.5364 285.44C77.8791 285.752 75.0368 285.726 73.5913 286.564C72.3339 287.292 72.47 289.626 72.2365 291.012Z" fill="#57A9F2"/>
<path d="M62.0249 228.491C62.9702 229.905 64.1081 231.186 65.0013 232.635C66.221 234.613 66.9496 236.848 67.6671 239.057C69.632 245.109 71.616 251.271 71.7183 257.632C71.7901 262.086 70.9343 266.506 70.8202 270.959C70.7442 273.921 70.997 276.881 71.2494 279.833C71.5084 282.863 71.767 285.892 72.0259 288.922C74.4935 289.156 77.0278 288.629 79.1961 287.428C78.7798 279.934 79.5779 272.416 80.8684 265.02C81.4915 261.449 82.2307 257.89 82.5527 254.279C83.1451 247.653 82.3235 240.99 81.5037 234.388C80.4858 226.196 79.4486 217.918 76.5859 210.175C76.7798 210.7 62.8226 212.046 61.6207 212.167C57.1695 212.611 58.3846 217.976 59.0492 221.199C59.5831 223.785 60.5538 226.289 62.0249 228.491Z" fill="#6456BF"/>
<path d="M52.373 191.452C51.9015 191.09 50.7365 191.203 50.1449 191.087C49.8168 191.024 49.3754 190.921 49.1213 190.679C48.7316 190.307 48.9194 189.868 49.0183 189.329C49.4286 187.094 49.4259 184.675 49.3244 182.371C49.2898 181.59 49.1476 180.832 49.1488 180.042C49.1492 179.498 49.2982 179.135 49.4282 178.646C50.2498 179.532 50.0414 181.632 50.3631 182.777C50.7012 183.978 51.0772 185.19 51.3126 186.411C51.4825 187.296 51.3722 188.232 51.5635 189.126C51.6718 189.634 51.9407 190.894 52.373 191.452Z" fill="#6456BF"/>
<path d="M58.8333 247.408C59.277 248.909 59.7865 250.4 59.9994 251.95C60.2447 253.738 60.0895 255.554 59.9332 257.351C59.7568 259.392 59.5793 261.434 59.4024 263.475C58.9447 268.753 58.5523 274.047 57.6964 279.275C57.3527 281.372 58.0714 283.064 58.2938 285.419C60.3484 278.763 61.2865 272.513 62.5579 265.665C63.9894 257.952 64.4077 250.091 64.8225 242.256C64.9423 239.993 65.0621 237.732 65.1818 235.468C65.2426 234.322 65.2875 233.103 64.7198 232.104C64.1545 231.109 63.0918 230.524 62.1207 229.916C59.6112 228.346 57.9986 226.087 55.8029 224.264C55.02 225.306 55.7421 228.026 55.8444 229.279C56.0105 231.322 56.2029 233.361 56.4534 235.395C56.952 239.45 57.6736 243.487 58.8333 247.408Z" fill="#3B2B72"/>
<path d="M82.1478 185.249L65.6283 183.352C64.7842 183.255 64.5735 182.537 65.1575 181.751L80.7745 160.704C81.3585 159.917 82.5166 159.356 83.3611 159.453L99.8813 161.35C100.725 161.448 100.935 162.165 100.351 162.952L84.7348 183.998C84.1504 184.786 82.9923 185.346 82.1478 185.249Z" fill="#57A9F2"/>
<path d="M67.2568 181.259L81.8717 161.561C82.2036 161.115 82.8606 160.797 83.3397 160.851L97.9851 162.534C98.465 162.589 98.5838 162.996 98.2528 163.444L83.6371 183.141C83.3052 183.588 82.6482 183.906 82.1691 183.851L67.5237 182.169C67.0442 182.113 66.9248 181.707 67.2568 181.259Z" fill="#F2A71D"/>
<path d="M77.3684 196.435C77.5186 195.041 77.7345 193.649 77.7265 192.247C77.7129 189.714 76.9717 187.247 76.2379 184.823C75.2509 181.562 74.2634 178.302 73.2761 175.041C72.9148 173.849 72.5487 172.644 71.9441 171.553C70.3548 171.821 68.7038 171.715 67.1609 171.248L67.3876 171.405C65.2544 173.204 62.4237 174.145 59.6378 174.01C59.6393 174.005 59.6405 174 59.642 173.994C59.3363 173.847 58.8215 173.893 58.4402 173.725C58.1078 173.577 57.7459 173.376 57.4363 173.181C56.9562 172.88 56.3949 172.212 56.6478 171.61C55.7539 172.262 55.1136 172.479 54.014 172.531C53.2368 172.566 52.2851 172.632 51.6665 173.163C50.6076 174.071 50.0281 175.462 49.7935 176.84C49.7722 176.905 49.7487 176.968 49.7296 177.033C49.3859 178.22 49.4866 179.484 49.6041 180.714C49.8494 183.289 50.155 185.867 50.7839 188.376C51.1779 189.948 51.6988 191.491 51.9893 193.084C53.1607 199.509 50.5242 206.184 51.7577 212.596C52.5391 212.538 53.1858 213.146 53.8003 213.632C55.8851 215.281 58.6359 215.859 61.2937 215.924C63.9515 215.988 66.5993 215.591 69.2571 215.524C72.2836 215.449 75.665 215.689 77.9471 213.7C77.2387 207.972 76.7497 202.173 77.3684 196.435Z" fill="#AEACF2"/>
<path d="M71.556 173.774C70.7229 173.281 69.5846 173.756 69.0427 174.557C68.5005 175.358 68.412 176.374 68.3922 177.341C68.2709 183.147 69.9955 188.831 70.4736 194.618C70.5743 195.843 70.6172 197.092 70.3108 198.281C70.0138 199.432 69.4025 200.476 69.0222 201.602C68.2751 203.813 68.4534 206.23 68.8693 208.527C69.285 210.823 69.9306 213.088 70.099 215.415C72.972 215.26 75.8206 214.672 78.5206 213.677C78.6894 213.616 78.8703 213.54 78.9586 213.383C79.0483 213.223 79.0129 213.024 78.9764 212.844C77.8738 207.389 77.94 201.765 78.3068 196.211C78.4 194.801 78.5125 193.387 78.4046 191.977C78.3054 190.681 78.021 189.406 77.7346 188.136C77.0426 185.068 76.2693 181.865 74.1932 179.501C73.4328 178.635 72.5127 177.904 71.8682 176.947C71.2237 175.993 70.8978 174.697 71.4633 173.692C71.724 174.086 71.9853 174.48 72.2464 174.875" fill="#6456BF"/>
<path d="M83.4607 206.142C83.3406 206.085 83.2215 206.019 83.1094 205.948C82.3197 205.441 81.7634 204.672 81.2364 203.912C78.1224 199.42 75.405 194.637 73.2602 189.589C72.2864 187.294 71.4286 184.945 70.7073 182.542C70.1658 180.741 69.7016 178.787 70.3431 176.904C70.6985 175.853 71.5765 174.527 72.7111 174.092C73.7875 173.675 74.9198 174.32 75.6327 175.004C76.2726 175.618 76.7274 176.391 77.1714 177.158C81.4999 184.639 85.4359 192.459 87.3694 200.997C87.5789 201.919 87.763 202.871 87.5972 203.834C87.4307 204.797 86.8443 205.79 85.9112 206.223C85.1143 206.595 84.2036 206.499 83.4607 206.142Z" fill="#ECA76C"/>
<path d="M85.1189 206.039C84.5714 206.047 84.0139 206.169 83.4606 206.142C83.3405 206.085 83.2215 206.019 83.1094 205.948C82.3197 205.441 81.7634 204.672 81.2364 203.912C78.1224 199.42 75.405 194.637 73.2601 189.588C73.7445 189.458 74.2977 189.294 74.63 189.515C75.1714 189.873 75.327 190.882 75.6491 191.414C76.4246 192.697 77.2346 193.806 77.7824 195.198C78.3011 196.518 78.8068 197.576 79.5223 198.785C80.2619 200.033 80.9147 201.476 81.8406 202.66C82.795 203.878 84.0113 204.995 85.1189 206.039Z" fill="#E27D26"/>
<path d="M76.1825 172.901C77.0212 173.633 77.6958 174.532 78.3634 175.423C78.8912 176.128 79.4193 176.832 79.9475 177.537C80.4258 178.175 80.9045 178.813 81.3254 179.491C81.7398 180.157 82.0961 180.859 82.4519 181.559C83.0611 182.755 83.6698 183.953 84.2786 185.149C80.6067 188.322 75.8577 190.227 71.0092 190.474C70.1548 188.528 69.4385 186.521 68.8692 184.473C68.3115 182.469 67.8921 180.393 68.0582 178.319C68.2214 176.286 69.1399 173.976 70.4863 172.406C71.9704 170.677 74.7513 171.65 76.1825 172.901Z" fill="#AEACF2"/>
<path d="M65.7697 168.838C65.9073 168.981 65.8266 168.929 65.7321 168.841C65.744 168.841 65.7577 168.841 65.7697 168.838Z" fill="#E27D26"/>
<path d="M41.9503 110.341C41.148 109.878 40.383 109.612 39.6811 109.527C38.0473 103.039 33.4968 96.4245 28.1403 93.3352C24.7126 91.3568 21.621 91.2109 19.4077 92.562L19.399 92.5551L16.8317 94.0404L17.3731 94.5939C16.6937 95.6784 16.2351 97.046 16.0492 98.6695C15.015 97.1735 13.7275 95.8963 12.3325 95.0919C10.6257 94.1076 9.08123 94.0152 7.96262 94.661L5.58508 96.0218L6.39001 96.8632C6.24097 97.3913 6.15542 97.9876 6.15542 98.6558C6.15542 103.24 9.3759 108.814 13.3481 111.105L22.1468 116.183L34.1329 123.098L40.9347 127.021C41.6073 127.409 42.2548 127.669 42.8723 127.826L43.6389 128.889L46.0012 127.537L46.0004 127.535C47.3133 126.789 48.1274 125.175 48.1274 122.872V121.032C48.1274 117.095 45.3624 112.308 41.9503 110.341Z" fill="#79C3F2"/>
<path d="M45.7826 122.375V124.214C45.7826 128.798 42.5621 130.656 38.5895 128.365L31.7881 124.44L19.802 117.525L11.0032 112.449C7.03067 110.156 3.81018 104.582 3.81018 99.9982C3.81018 96.0617 6.57554 94.4665 9.98723 96.4343C11.382 97.2397 12.6697 98.5158 13.7039 100.013C14.4488 93.5016 19.5773 91.0894 25.7946 94.6776C31.1516 97.7678 35.7025 104.381 37.3355 110.87C38.0378 110.955 38.8031 111.22 39.6055 111.683C43.0169 113.652 45.7826 118.438 45.7826 122.375Z" fill="#F2A71D"/>
<path d="M301.359 40.3676C300.277 39.7432 299.247 39.3852 298.3 39.2705C296.097 30.5221 289.962 21.6055 282.739 17.4385C278.118 14.7724 273.949 14.5759 270.964 16.3958L270.953 16.387L267.492 18.3908L268.223 19.1359C267.306 20.5988 266.687 22.443 266.437 24.6315C265.043 22.6142 263.306 20.8935 261.425 19.8089C259.124 18.4803 257.041 18.3558 255.534 19.2263L252.327 21.0627L253.414 22.1969C253.212 22.9089 253.096 23.7114 253.096 24.614C253.096 30.7945 257.439 38.3094 262.795 41.3997L274.658 48.2445L290.818 57.5677L299.99 62.8591C300.897 63.3824 301.77 63.7326 302.603 63.9446L303.637 65.3764L306.821 63.5536L306.82 63.5516C308.59 62.5459 309.688 60.37 309.688 57.2642V54.7839C309.688 49.4759 305.96 43.0221 301.359 40.3676Z" fill="#D86F13"/>
<path d="M306.526 56.594V59.0733C306.526 65.2548 302.184 67.7604 296.828 64.6692L287.657 59.3788L271.497 50.0546L259.633 43.2098C254.276 40.1196 249.935 32.6046 249.935 26.4241C249.935 21.1152 253.664 18.9646 258.264 21.6181C260.144 22.7036 261.881 24.4243 263.275 26.4426C264.279 17.6631 271.193 14.4124 279.577 19.2496C286.799 23.4156 292.935 32.3332 295.137 41.0815C296.085 41.1953 297.116 41.5533 298.196 42.1778C302.798 44.8322 306.526 51.285 306.526 56.594Z" fill="#9E90F2"/>
<path d="M74.3235 16.742C74.3235 11.0285 70.31 4.08055 65.3579 1.2228C62.8854 -0.203159 60.6466 -0.339333 59.0242 0.592501L59.0193 0.595421C59.0181 0.596394 59.0177 0.596395 59.0177 0.596395L56.8653 1.8531L57.1866 2.59917C56.6774 3.60395 56.3923 4.87815 56.3923 6.39651C56.3923 12.1101 60.4063 19.058 65.3579 21.9148C66.5705 22.6141 67.7263 23.0022 68.7815 23.1073L69.3749 23.8932L71.6951 22.5441C71.697 22.5421 71.6989 22.5422 71.7008 22.5402L71.7403 22.5178L71.7389 22.5159C73.3369 21.5695 74.3235 19.5735 74.3235 16.742Z" fill="#D86F13"/>
<path d="M54.2136 7.66783C54.2136 1.95427 58.2276 -0.361692 63.1796 2.49509C68.1309 5.35187 72.1452 12.2998 72.1452 18.0133C72.1452 23.7269 68.1309 26.0429 63.1796 23.1861C58.2276 20.3293 54.2136 13.3814 54.2136 7.66783Z" fill="#F2A71D"/>
<path d="M60.3926 11.578V7.57149C60.3926 7.05304 60.8793 7.00927 61.2686 7.49367L64.2751 11.2317L67.2819 14.9697C67.6708 15.4532 67.6708 16.101 67.2819 16.136L64.2751 16.4045L61.2686 16.6719C60.8793 16.707 60.3926 16.102 60.3926 15.5835V11.578Z" fill="#F2D130"/>
<path d="M294.561 127.805L295.783 127.064L295.468 126.491L294.258 127.27L294.561 127.805Z" fill="white"/>
<path d="M296.229 100.71V126.057C296.229 127.056 295.526 127.462 294.66 126.962L279.717 118.34C278.85 117.841 278.148 116.625 278.148 115.625V97.7513L286.191 93.1077L294.66 97.9945C295.526 98.4945 296.229 99.7103 296.229 100.71Z" fill="#D86F13"/>
<path d="M295.021 101.443V126.79C295.021 127.79 294.319 128.194 293.451 127.695L278.509 119.074C277.642 118.574 276.94 117.358 276.94 116.358V98.4838L284.982 93.8411L293.451 98.7269C294.319 99.2279 295.021 100.444 295.021 101.443Z" fill="#F2A71D"/>
<path d="M285.372 94.0649V101.572C285.372 102.571 284.67 102.977 283.803 102.477L277.326 98.7406L284.982 93.8411L285.372 94.0649Z" fill="#D86F13"/>
<path d="M284.984 93.843V101.313C284.984 102.312 284.282 102.718 283.415 102.218L276.939 98.4818L284.984 93.843Z" fill="#F2D130"/>
<path d="M279.781 103.858L292.331 111.1" stroke="#D86F13" stroke-width="0.879823" stroke-miterlimit="10" stroke-linecap="round"/>
<path d="M279.781 106.847L292.331 114.088" stroke="#D86F13" stroke-width="0.879823" stroke-miterlimit="10" stroke-linecap="round"/>
<path d="M279.781 109.835L292.331 117.077" stroke="#D86F13" stroke-width="0.879823" stroke-miterlimit="10" stroke-linecap="round"/>
<path d="M279.781 112.824L292.331 120.065" stroke="#D86F13" stroke-width="0.879823" stroke-miterlimit="10" stroke-linecap="round"/>
<path d="M16.2644 165.012L8.24402 161.981V160.249L17.8173 163.871V165.598L16.2644 165.012ZM6.63947 157.926V171.223C6.29462 170.809 5.90831 170.451 5.49045 170.168C5.39729 170.106 5.30071 170.043 5.20376 169.989C5.16612 169.964 5.12429 169.943 5.08703 169.927V172.099C4.66232 171.592 4.17563 171.165 3.65093 170.864C2.7365 170.336 1.8426 170.26 1.13196 170.66L1.65287 171.233C1.58747 171.498 1.55286 171.785 1.55286 172.096C1.55286 173.012 1.8464 174.002 2.32928 174.895C2.87452 175.903 3.66804 176.789 4.56233 177.306C4.75548 177.416 4.94521 177.499 5.13494 177.572L5.5836 178.351L5.58702 178.355L7.17103 177.462V177.451C7.84402 177.026 8.24402 176.257 8.24402 175.223C8.24402 175.178 8.24402 175.064 8.24402 175.064V163.695L17.8173 167.316V175.45C17.4826 175.051 17.1066 174.7 16.7063 174.423C16.599 174.347 16.4922 174.274 16.3819 174.213C16.3439 174.192 16.3024 174.167 16.2644 174.15V176.327C15.8401 175.819 15.3534 175.392 14.8287 175.092C13.904 174.558 13.0033 174.488 12.2888 174.899L12.8238 175.488C12.7618 175.744 12.7306 176.023 12.7306 176.323C12.7306 177.123 12.9516 177.978 13.331 178.775C13.8763 179.927 14.7428 180.958 15.7397 181.534C15.8743 181.613 16.0127 181.68 16.1474 181.737L16.6648 182.634V182.638L16.7302 182.6L18.2523 181.745V181.737C18.2625 181.73 18.2731 181.726 18.283 181.72C18.9975 181.31 19.4184 180.509 19.4184 179.44C19.4184 179.4 19.4222 179.292 19.4222 179.292V162.76L6.63947 157.926Z" fill="#D86F13"/>
<path d="M6.69153 162.857V161.126L8.24398 161.711L16.2644 164.746V166.475L6.69153 162.857ZM6.63944 159.388L5.08699 158.801V172.099C4.66228 171.592 4.1756 171.165 3.65089 170.864C2.73646 170.336 1.84256 170.26 1.13192 170.66C1.12508 170.664 1.11443 170.671 1.10797 170.675C0.39353 171.088 0 171.902 0 172.971C0 173.596 0.134598 174.254 0.37642 174.895C0.883637 176.251 1.86347 177.519 3.00946 178.182C3.53379 178.485 4.05127 178.638 4.53453 178.638C4.90069 178.638 5.24554 178.551 5.55277 178.371C5.56303 178.365 5.57292 178.358 5.58357 178.351C6.28089 177.934 6.69153 177.151 6.69153 176.098C6.69153 176.054 6.69153 175.94 6.69153 175.94V164.571L8.24398 165.157L16.2644 168.191V176.327C15.84 175.819 15.3533 175.392 14.8287 175.092C13.904 174.558 13.0032 174.489 12.2888 174.899C12.2888 174.903 12.2854 174.903 12.2854 174.903C11.5713 175.316 11.1778 176.13 11.1778 177.199C11.1778 177.71 11.2675 178.244 11.4367 178.775C11.8953 180.259 12.9412 181.692 14.1872 182.41C14.7112 182.714 15.2287 182.864 15.7089 182.864C16.0542 182.864 16.3747 182.789 16.6648 182.634C16.6887 182.623 16.7092 182.613 16.7302 182.6C17.4446 182.185 17.8659 181.386 17.8659 180.32C17.8659 180.275 17.8689 180.168 17.8689 180.168V163.636L6.63944 159.388Z" fill="#9E90F2"/>
<path d="M5.0863 158.802L6.63951 157.926L19.4226 162.76L17.8698 163.636L5.0863 158.802Z" fill="#F2D130"/>
<path d="M5.08703 172.099C4.66232 171.592 4.17563 171.165 3.65093 170.864C2.7365 170.336 1.8426 170.26 1.13196 170.66L2.60874 169.829H2.61254C2.62965 169.82 2.64335 169.809 2.66045 169.798C3.3441 169.402 4.2034 169.45 5.08703 169.927V172.099Z" fill="white"/>
<path d="M16.2644 174.15V176.327C15.8401 175.819 15.3534 175.392 14.8287 175.092C13.904 174.558 13.0033 174.489 12.2888 174.899L13.766 174.067L13.7724 174.071C13.7937 174.058 13.8147 174.04 13.8382 174.027C14.5215 173.63 15.3808 173.678 16.2644 174.15Z" fill="white"/>
<path d="M334.116 167.268L314.953 156.213C313.741 155.513 312.642 155.431 311.829 155.854L311.825 155.849L311.753 155.89C311.747 155.893 311.742 155.896 311.737 155.898L309.321 157.243L310.058 158.554L310.435 158.343C310.421 158.5 310.412 158.663 310.412 158.833V167.409C310.412 170.302 312.447 173.822 314.953 175.27L316.067 175.912L316.942 180.866L316.567 180.496L314.928 185.026L317.431 183.632L321.378 178.975L333.834 186.163L333.679 186.249L334.81 188.044L337.199 186.709L337.197 186.703C338.093 186.263 338.657 185.224 338.657 183.706V175.128C338.657 172.232 336.623 168.715 334.116 167.268Z" fill="#D86F13"/>
<path d="M351.458 153.832L332.297 142.776C331.13 142.104 330.07 142.004 329.265 142.372L329.262 142.367L329.166 142.42C329.122 142.442 329.079 142.466 329.038 142.492L326.672 143.802C326.672 143.802 327.33 144.938 327.401 144.938C327.419 144.938 327.574 144.862 327.798 144.749C327.772 144.955 327.756 145.168 327.756 145.396V153.973C327.756 156.866 329.79 160.386 332.297 161.833L345.034 169.182L346.856 173.433L346.07 173.705L346.478 179.785L348.981 178.392L350.347 172.246L351.333 172.816L352.054 174.66L354.649 173.217V173.215C355.482 172.746 356 171.727 356 170.268V161.692C356 158.796 353.966 155.278 351.458 153.832Z" fill="#2065BF"/>
<path d="M336.154 176.522V185.099C336.154 187.992 334.12 189.165 331.612 187.719L318.875 180.37L314.928 185.026L313.563 177.305L312.451 176.663C309.943 175.217 307.909 171.696 307.909 168.803V160.226C307.909 157.33 309.943 156.16 312.451 157.607L331.612 168.661C334.12 170.108 336.154 173.626 336.154 176.522Z" fill="#F2A71D"/>
<path d="M325.252 146.789V155.366C325.252 158.259 327.286 161.78 329.793 163.227L342.53 170.575L346.477 179.785L347.842 173.64L348.956 174.282C351.462 175.729 353.496 174.555 353.496 171.662V163.086C353.496 160.189 351.462 156.672 348.956 155.225L329.793 144.17C327.286 142.723 325.252 143.894 325.252 146.789Z" fill="#79C3F2"/>
<defs>
<linearGradient id="paint0_linear" x1="159.069" y1="188.583" x2="159.069" y2="48.8238" gradientUnits="userSpaceOnUse">
<stop stop-color="#ED5E64"/>
<stop offset="1" stop-color="#F03A41"/>
</linearGradient>
<linearGradient id="paint1_linear" x1="159.065" y1="204.653" x2="159.065" y2="99.5817" gradientUnits="userSpaceOnUse">
<stop stop-color="#ED5E64"/>
<stop offset="1" stop-color="#F03A41"/>
</linearGradient>
<linearGradient id="paint2_linear" x1="159.055" y1="220.726" x2="159.055" y2="150.349" gradientUnits="userSpaceOnUse">
<stop stop-color="#ED5E64"/>
<stop offset="1" stop-color="#F03A41"/>
</linearGradient>
<linearGradient id="paint3_linear" x1="159.386" y1="274.702" x2="159.386" y2="201.085" gradientUnits="userSpaceOnUse">
<stop stop-color="#ED5E64"/>
<stop offset="1" stop-color="#F03A41"/>
</linearGradient>
</defs>
</svg>
