<svg width="505" height="307" viewBox="0 0 505 307" fill="none" xmlns="http://www.w3.org/2000/svg">
<path d="M263.433 307C140.516 307 40.8707 296.762 40.8707 284.133C40.8707 272.159 130.45 262.334 244.506 261.347C252.041 267.3 259.638 273.2 268.112 277.512C280.354 283.741 293.696 286.311 307.324 286.31C326.804 286.309 346.861 281.056 365.077 273.73C371.32 271.219 377.598 268.373 383.371 264.867C445.09 268.931 485.997 276.041 485.997 284.133C485.997 296.762 386.352 307 263.433 307Z" fill="#DCE8F7"/>
<path d="M383.371 264.867C376.762 264.432 369.926 264.032 362.864 263.669L351.946 186.54C354.09 185.793 356.267 185.151 358.493 184.658C362.512 183.769 366.574 183.394 370.656 183.394C380.925 183.394 391.303 185.773 401.335 188.347C406.183 189.59 411.145 190.883 416.111 191.574C414.161 203.968 411.751 219.266 409.687 232.374C406.872 237.873 404.51 243.694 401.044 248.803C396.507 255.49 390.304 260.655 383.371 264.867ZM352.322 263.162C338.787 262.556 324.556 262.084 309.778 261.762L333.035 234.815L334.633 232.919L338.593 211.67L338.592 211.671L339.289 207.931C341.858 221.413 345.565 236.799 348.531 248.458C349.851 253.862 351.155 258.973 352.322 263.162ZM298.344 261.546C289.802 261.408 281.092 261.319 272.256 261.284C273.302 235.562 271.203 216.345 268.491 203.279C268.294 202.312 268.092 201.372 267.885 200.465C270.878 201.622 273.959 202.545 277.079 203.217C282.017 204.281 287.033 204.774 292.059 204.774C302.815 204.774 313.618 202.516 323.799 198.767C322.674 207.624 321.709 218.17 320.922 228.283C309.675 244.075 300.086 258.405 300.086 258.405L300.672 258.692L298.344 261.546ZM244.506 261.347C233.609 252.74 222.841 244.026 209.736 239.861C204.353 238.149 198.704 237.299 193.055 237.299C185.944 237.299 178.833 238.646 172.244 241.322C162.285 245.364 152.982 252.433 142.273 252.433C142.13 252.433 141.988 252.432 141.845 252.429C127.909 252.183 117.449 240.134 108.922 229.108L108.889 228.961C120.563 241.381 135.464 251.171 135.464 251.171C135.464 251.171 174.634 211.832 143.899 161.006C144.516 160.353 145.222 159.682 145.981 159.014L153.564 168.66L157.418 159.314L153.514 153.556C154.299 153.103 155.013 152.735 155.611 152.484L155.074 151.656L165.576 155.578L160 143.875L153.667 140.897C153.971 140.347 154.263 139.869 154.533 139.483L145.153 134.808C144.569 133.492 144.024 132.234 144.024 132.234L145.675 128.397C142.884 126.569 140.467 124.304 138.71 121.22C137.969 122.681 137.052 124.622 136.097 126.975C130.968 129.997 128.408 132.545 126.425 137.35C123.949 133.883 121.632 130.283 119.611 126.46C119.957 131.835 116.964 136.537 114.596 141.137C106.459 156.94 100.636 169.036 97.3857 179.438L87.4716 136.753C101.405 126.445 109.96 110.414 116.02 94.1781C122.081 77.9417 126.126 60.9333 133.436 45.2202C140.956 29.0582 154.515 13.0537 172.34 12.7623C172.512 12.7593 172.684 12.7586 172.856 12.7586C193.462 12.7586 207.462 32.9651 224.417 45.4028C215.496 53.4359 208.288 63.371 203.453 74.3609C200.905 80.1543 198.975 86.287 195.443 91.5394C191.914 96.7859 186.307 101.17 179.985 101.17C179.978 101.17 179.971 101.17 179.964 101.17L182.901 113.638C187.228 112.488 191.139 111.811 194.773 111.811C205.213 111.811 213.343 117.408 222.345 133.477C222.275 133.487 222.205 133.499 222.137 133.511C219.38 134.008 216.913 136.414 216.065 139.431C215.719 140.658 215.635 142.02 216.079 143.177C216.734 144.882 218.386 145.802 220.007 146.183C221.627 146.564 223.324 146.544 224.919 147.035C225.305 147.154 225.689 147.313 226.055 147.512L213.996 164.938L216.173 170.878V170.877C216.185 170.864 216.559 170.437 217.182 169.719L217.238 169.655L217.251 169.639C219.427 167.132 224.433 161.317 227.927 156.901L231.419 160.037C231.419 160.037 236.554 163.864 231.015 176.541C230.474 177.782 231.703 178.47 233.125 179.102L233.177 179.125C221.365 189.284 211.45 206.556 211.45 206.556L250.621 229.019L252.561 227.594L252.588 227.616L253.438 226.95C253.438 226.95 246.565 212.077 236.06 206.08C232.305 203.848 229.632 203.646 228.788 203.646C228.602 203.646 228.505 203.655 228.505 203.655C228.505 203.655 228.532 203.652 228.586 203.642C230.061 203.395 231.989 202.534 234.06 201.374C237.261 199.642 241.931 196.607 248.277 191.306C258.805 217.1 266.546 250.792 268.827 261.272C267.037 261.268 265.234 261.266 263.433 261.266C257.057 261.266 250.747 261.293 244.506 261.347ZM193.946 162.359L194.246 164.734L216.173 170.878L213.996 164.938C213.996 164.938 212.519 162.617 193.946 162.359ZM443.884 207.59C444.024 204.769 444.1 201.972 444.096 199.25C444.094 194.367 443.829 189.696 443.207 185.466C447.572 182.455 451.543 178.721 455.294 174.965C466.026 164.217 476.181 152.406 481.806 138.298C484.126 132.479 485.575 126.194 485.918 119.911C493.051 125.747 499.673 132.672 502.89 141.305C507.87 154.673 503.614 170.3 494.542 181.309C485.469 192.319 472.244 199.215 458.615 203.436C453.818 204.922 448.812 206.18 443.884 207.59ZM298.62 43.0394C293.262 43.0394 287.867 42.1988 282.656 40.748C293.063 32.1849 301.922 21.7575 312.975 14.0437C325.978 4.96832 341.803 3.05176e-05 357.66 3.05176e-05C357.929 3.05176e-05 358.197 0.00149536 358.465 0.00445557C367.469 0.100128 376.84 1.94022 383.882 7.55109C387.737 10.6233 390.494 14.3823 392.545 18.5888C386.967 16.5963 380.996 15.6078 375.071 15.6078C374.972 15.6078 374.872 15.6085 374.774 15.6085C362.663 15.6763 350.79 19.6347 340.259 25.6172C330.898 30.9352 322.302 37.9202 312.014 41.0955C307.664 42.4373 303.155 43.0394 298.62 43.0394Z" fill="#EFF6FC"/>
<path d="M307.324 286.31C293.696 286.311 280.354 283.741 268.112 277.512C259.638 273.2 252.041 267.3 244.506 261.347C250.747 261.294 257.057 261.266 263.433 261.266C265.234 261.266 267.037 261.268 268.827 261.272C269.282 263.36 269.519 264.526 269.519 264.526L272.092 264.866C272.154 263.658 272.208 262.464 272.256 261.284C281.092 261.319 289.802 261.408 298.344 261.546L297.757 262.264L304.101 266.995L308.149 262.35L308.938 262.736L309.778 261.762C324.556 262.084 338.787 262.556 352.322 263.162C352.684 264.462 353.033 265.674 353.365 266.778L354.275 266.698L355.894 272.884L363.455 270.55L362.418 265.981L363.182 265.914L362.864 263.669C369.926 264.032 376.762 264.432 383.371 264.867C377.598 268.374 371.32 271.219 365.077 273.73C346.861 281.056 326.804 286.309 307.324 286.31Z" fill="#D1E2F5"/>
<path d="M485.918 119.911C485.866 119.868 485.814 119.825 485.761 119.783C476.492 112.227 466.1 106.051 455.032 101.52C438.768 94.8618 419.816 90.8622 409.442 76.6772C397.561 60.432 400.92 35.7614 392.545 18.5888C398.279 20.6372 403.596 23.7455 408.018 27.9306C415.935 35.425 420.559 45.7767 427.956 53.7848C443.006 70.0778 468.335 75.5238 479.969 94.4084C484.65 102.007 486.406 110.958 485.918 119.911ZM249.549 54.9198C248.199 54.9198 246.842 54.8396 245.483 54.6717C237.691 53.7134 230.841 50.1149 224.418 45.4028C225.961 44.0131 227.554 42.6809 229.196 41.4098C236.09 36.0712 244.284 31.6852 252.968 31.6852C253.263 31.6852 253.558 31.6903 253.855 31.7006C261.859 31.9781 269.177 35.9748 276.674 38.7917C278.631 39.527 280.629 40.1835 282.656 40.748C282.605 40.7892 282.555 40.8297 282.505 40.8717C273.091 48.5898 261.55 54.9198 249.549 54.9198Z" fill="#DCE8F7"/>
<path d="M292.059 204.773C287.033 204.773 282.017 204.281 277.079 203.217C273.959 202.545 270.878 201.622 267.885 200.465C267.461 198.603 267.017 196.869 266.556 195.247C263.775 185.274 260.873 181.276 260.83 181.217C260.964 181.114 261.094 181.011 261.222 180.909C262.091 180.204 262.568 179.151 262.567 178.063C262.567 177.745 262.525 177.424 262.441 177.107C261.619 174.037 252.909 167.05 252.808 162.016C252.705 156.852 252.367 152.606 251.698 149.241C255.947 150.365 264.443 152.057 269.691 153.071C269.983 153.127 270.275 153.154 270.561 153.154C272.711 153.155 274.625 151.626 275.04 149.433C275.338 147.851 274.781 146.229 273.574 145.163L257.576 131.05L255.466 132.187L263.509 145.086L258.165 143.43C258.542 142.638 258.765 141.771 258.778 140.859C258.824 137.784 256.621 135.371 254.393 133.684C252.668 132.377 250.647 130.968 250.24 128.694C250.328 128.687 250.415 128.683 250.502 128.683C250.694 128.683 250.887 128.702 251.079 128.749C252.716 129.147 252.114 132.187 255.466 132.187L257.576 131.05L258.508 125.161L254.507 117.561L251.409 116.231C251.327 116.175 251.213 116.151 251.082 116.151C250.468 116.151 249.474 116.685 249.656 117.109C249.726 117.272 249.801 117.452 249.881 117.647C249.354 117.084 248.755 116.583 248.166 116.129C245.655 114.198 242.992 112.511 240.215 111.092C239.207 110.577 237.937 110.029 236.715 110.029C236.045 110.029 235.389 110.194 234.798 110.62C233.697 111.415 233.478 112.96 233.006 114.216C231.185 119.073 227 119.536 223.862 122.718C223.045 123.547 222.377 124.719 222.495 125.928C222.667 127.686 224.323 128.651 225.162 130.123C225.382 130.511 225.551 130.962 225.515 131.43C225.455 132.209 224.838 132.825 224.183 133.097C223.594 133.343 222.964 133.381 222.344 133.477C213.343 117.408 205.213 111.811 194.773 111.811C191.139 111.811 187.228 112.488 182.901 113.638L179.964 101.17C179.971 101.17 179.978 101.17 179.985 101.17C186.306 101.17 191.914 96.7859 195.443 91.5393C198.975 86.287 200.905 80.1542 203.453 74.3609C208.288 63.371 215.496 53.4359 224.417 45.4028C230.841 50.1149 237.691 53.7134 245.482 54.6717C246.842 54.8396 248.199 54.9198 249.549 54.9198C261.55 54.9198 273.09 48.5898 282.505 40.8717C282.555 40.8297 282.605 40.7892 282.656 40.748C287.867 42.1988 293.262 43.0394 298.62 43.0394C303.155 43.0394 307.664 42.4373 312.014 41.0954C322.302 37.9202 330.898 30.9351 340.259 25.6172C350.79 19.6347 362.663 15.6762 374.774 15.6085C374.872 15.6085 374.972 15.6078 375.071 15.6078C380.996 15.6078 386.967 16.5963 392.545 18.5888C400.919 35.7614 397.561 60.432 409.442 76.6772C419.816 90.8622 438.768 94.8618 455.032 101.52C466.1 106.051 476.492 112.227 485.761 119.783C485.813 119.825 485.866 119.868 485.918 119.911C485.575 126.194 484.126 132.479 481.806 138.298C476.18 152.406 466.026 164.217 455.293 174.965C451.543 178.721 447.572 182.455 443.207 185.466C442.882 183.26 442.461 181.174 441.929 179.242C441.922 179.215 441.914 179.189 441.908 179.162C441.906 179.154 441.903 179.147 441.901 179.139C441.899 179.133 441.897 179.124 441.894 179.117C441.892 179.106 441.887 179.089 441.884 179.078C441.883 179.072 441.88 179.066 441.879 179.06C441.875 179.045 441.872 179.033 441.867 179.019C441.866 179.014 441.865 179.01 441.864 179.005C441.859 178.989 441.854 178.971 441.85 178.955C440.008 172.453 434.41 168.381 434.192 168.225C434.188 168.222 434.186 168.22 434.186 168.22C434.186 168.22 439.925 154.257 439.928 143.176C439.929 142.038 439.869 140.931 439.735 139.873C441.723 137.566 443.009 133.868 442.985 128.237C442.953 120.609 440.407 111.923 439.275 108.97C437.604 104.612 435.39 104.17 434.56 104.17C434.348 104.17 434.226 104.199 434.226 104.199L427.898 105.601C412.148 128.274 415.936 132.195 418.698 136.484L415.165 142.995C414.364 144.238 413.881 147.634 414.855 148.747C416.146 150.221 417.894 151.496 418.146 152.544L419.802 168.041C419.802 168.044 419.801 168.046 419.801 168.05C419.712 168.668 418.167 178.506 416.111 191.574C411.145 190.883 406.183 189.59 401.334 188.347C391.303 185.773 380.925 183.394 370.655 183.394C366.574 183.394 362.512 183.769 358.493 184.657C356.267 185.151 354.09 185.793 351.946 186.54L351.413 182.775C351.413 182.774 355.467 132.177 346.285 127.997C340.95 126.445 338.777 125.191 336.032 125.191C335.194 125.191 334.302 125.308 333.249 125.569C331.229 126.071 325.171 128.742 323.651 129.736C321.664 131.038 320.242 133.56 320.237 135.937C320.237 135.945 320.237 135.955 320.238 135.965C320.281 150.43 330.051 163.238 330.053 169.282C330.053 169.409 330.049 169.533 330.04 169.653L328.316 178.103C326.617 180.537 325.101 188.521 323.799 198.767C313.618 202.516 302.814 204.773 292.059 204.773ZM336.597 179.778L328.316 178.103L334.588 179.372L336.597 179.778V179.778ZM421.829 168.094C420.636 168.052 419.802 168.041 419.802 168.041L421.754 168.065C421.772 168.074 421.797 168.083 421.829 168.094ZM252.32 126.735C252.188 126.735 252.015 126.663 251.79 126.485C251.534 126.283 251.15 126.194 250.71 126.194C250.607 126.194 250.5 126.199 250.392 126.208C250.741 124.778 251.392 123.361 251.522 121.917C251.994 123.207 252.426 124.448 252.696 125.321C252.696 125.321 252.904 126.735 252.32 126.735Z" fill="#D1E2F5"/>
<path d="M94.7562 237.61C94.7562 237.61 98.3441 196.545 87.1763 178.805C76.9448 162.555 61.1474 156.141 29.1133 146.252C24.5314 144.838 19.5247 143.818 15.9357 139.855C19.2319 148.672 21.0481 157.782 22.7653 166.82C36.6439 239.878 94.7562 237.61 94.7562 237.61Z" fill="#F1487C"/>
<path d="M59.7054 218.84C62.4497 219.076 65.2087 219.459 67.9743 219.91C70.7392 220.362 73.513 220.955 76.2882 221.664C79.0612 222.393 81.8401 223.229 84.5969 224.304C87.353 225.372 90.1009 226.616 92.765 228.207L91.9228 228.775C91.4142 224.547 90.8312 220.297 90.2349 216.057C89.6121 211.812 88.9975 207.568 88.279 203.321C87.5753 199.076 86.8369 194.829 85.9874 190.583C85.1475 186.338 84.2067 182.096 83.0908 177.857L84.1074 181.008C84.4416 182.061 84.7169 183.121 85.0246 184.178C85.3345 185.236 85.612 186.297 85.8829 187.357C86.1538 188.419 86.4482 189.48 86.6823 190.544C87.7122 194.798 88.5639 199.061 89.3773 203.324C90.165 207.586 90.8761 211.848 91.504 216.108C92.1444 220.369 92.7127 224.62 93.1927 228.88L93.3222 230.029L92.3505 229.448C89.7814 227.911 87.1159 226.623 84.4173 225.523C81.7164 224.432 78.9854 223.483 76.2411 222.676C73.4975 221.852 70.7437 221.162 67.9868 220.519C65.2286 219.876 62.4688 219.354 59.7054 218.84Z" fill="#F03960"/>
<path d="M50.7695 205.851C53.5698 205.764 56.4031 205.856 59.2461 206.002C62.0934 206.183 64.9592 206.481 67.8389 206.936C70.7187 207.389 73.6124 208.001 76.5054 208.823C79.3947 209.673 82.2928 210.699 85.1284 212.119L84.3326 212.79C83.799 209.92 83.1975 207.038 82.6248 204.16L80.8191 195.525C80.2007 192.647 79.5736 189.769 78.9265 186.891C78.3089 184.01 77.5993 181.136 76.9441 178.252C77.8672 181.1 78.6998 183.964 79.5154 186.833C80.3126 189.701 81.0775 192.576 81.7805 195.456C82.4997 198.335 83.1674 201.218 83.8078 204.104C84.4593 206.99 85.0379 209.874 85.6091 212.772L85.8402 213.945L84.8126 213.443C82.0735 212.105 79.2578 211.041 76.4237 210.197C73.5896 209.331 70.7371 208.673 67.8846 208.112C65.0313 207.559 62.1759 207.115 59.3241 206.754C56.4679 206.36 53.6228 206.113 50.7695 205.851Z" fill="#F03960"/>
<path d="M39.7841 194.023C42.7591 193.724 45.7844 193.636 48.8247 193.617C51.8708 193.636 54.9412 193.782 58.0292 194.074C61.1188 194.359 64.2127 194.783 67.3339 195.346C70.4514 195.956 73.6499 196.812 76.7343 198.459L76.1653 199.604C73.7471 197.039 72.1085 193.862 70.7753 190.76C69.4488 187.644 68.2158 184.523 67.0704 181.367C65.9132 178.218 64.8627 175.038 63.8771 171.859C62.9091 168.677 61.9153 165.51 60.7647 162.366C62.1729 165.428 63.2948 168.596 64.4549 171.733C65.5834 174.878 66.7546 178.001 67.9839 181.11C69.2228 184.211 70.4971 187.315 71.8552 190.36C73.2156 193.376 74.7622 196.347 76.9493 198.625L79.7738 201.564L76.3802 199.769C73.4843 198.238 70.4235 197.356 67.3634 196.744C64.2944 196.116 61.2071 195.655 58.136 195.248C55.0626 194.856 51.9945 194.559 48.9366 194.363C45.8721 194.131 42.8304 194.071 39.7841 194.023Z" fill="#F03960"/>
<path d="M41.7691 183.431C43.6899 183.339 45.6349 183.381 47.5837 183.431C49.535 183.507 51.4968 183.64 53.4667 183.854C55.4359 184.053 57.4124 184.328 59.3911 184.658C61.3706 184.975 63.3537 185.388 65.3361 185.829L64.9135 187.001C64.0066 185.948 63.2433 184.861 62.4747 183.765C61.718 182.667 60.9819 181.559 60.2546 180.447C58.8132 178.216 57.4212 175.957 56.0572 173.682C54.6953 171.407 53.3637 169.112 52.0659 166.8C50.7902 164.475 49.499 162.159 48.3045 159.791L56.8934 173.136C58.3259 175.355 59.7606 177.57 61.2226 179.758C62.6728 181.94 64.173 184.15 65.7505 186.09L67.0343 187.667L65.328 187.262C63.3647 186.795 61.4015 186.397 59.4375 185.999C57.4742 185.616 55.511 185.273 53.5477 184.953C51.5859 184.647 49.6227 184.358 47.6601 184.109C45.6944 183.835 43.7365 183.651 41.7691 183.431Z" fill="#F03960"/>
<path d="M29.6984 172.516C31.3653 172.158 33.1052 172.03 34.8573 171.967C36.6154 171.934 38.3979 172.02 40.1882 172.21C41.9777 172.387 43.7757 172.678 45.5715 173.01C47.3678 173.337 49.163 173.758 50.9544 174.174L50.5473 175.378C49.0192 173.766 47.4937 172.143 45.9755 170.492C44.4747 168.822 42.9899 167.109 41.6156 165.294C40.2319 163.488 38.9511 161.6 37.7432 159.676C36.5596 157.732 35.3982 155.785 34.3288 153.784C35.6409 155.628 36.9015 157.501 38.2435 159.304C39.5602 161.125 40.9189 162.902 42.3354 164.611C43.7568 166.316 45.2278 167.964 46.7533 169.567L51.3401 174.408L52.9655 176.123L50.9323 175.611C49.1509 175.163 47.3712 174.763 45.5941 174.364C43.8168 173.97 42.0421 173.632 40.269 173.331C38.4977 173.046 36.7275 172.806 34.9643 172.665C33.1964 172.496 31.4479 172.479 29.6984 172.516Z" fill="#F03960"/>
<path d="M23.6539 160.885C24.3193 160.455 25.1091 160.236 25.9166 160.105C26.7286 159.98 27.5769 159.978 28.4356 160.052C29.2947 160.126 30.1634 160.311 31.0318 160.54C31.4666 160.655 31.8965 160.81 32.3315 160.945L33.6226 161.443L33.3078 162.784L32.1259 162.149C31.7269 161.968 31.3274 161.764 30.9234 161.599C30.1157 161.268 29.2959 160.975 28.4715 160.785C27.6479 160.596 26.8183 160.475 26.0032 160.474C25.1922 160.481 24.3799 160.57 23.6539 160.885Z" fill="#F03960"/>
<path d="M94.5972 237.624C93.8125 235.342 93.0167 233.082 92.1533 230.85C91.3001 228.615 90.3453 226.422 89.378 224.246C87.3765 219.915 85.1711 215.696 82.6947 211.633C80.2287 207.566 77.5808 203.618 74.8174 199.74C72.1025 195.906 69.091 192.286 65.7969 188.966C59.2173 182.296 51.8273 176.689 44.3032 171.387C40.5444 168.696 36.7415 165.945 33.2383 162.651C31.4911 161.008 29.8267 159.218 28.3562 157.251C26.8905 155.283 25.6296 153.136 24.6811 150.887C24.6396 150.788 24.6718 150.686 24.7526 150.658C24.8306 150.632 24.926 150.685 24.97 150.776C27.0628 155.133 30.2767 158.792 33.784 161.799C37.3051 164.832 41.1241 167.319 44.9528 169.82C52.6348 174.82 60.2972 180.21 67.3332 186.835C70.8408 190.143 74.2182 193.742 77.2275 197.709C80.1889 201.627 82.9038 205.787 85.2888 210.133C90.0847 218.798 93.5409 228.268 94.9145 237.596C94.9299 237.699 94.8688 237.78 94.779 237.776C94.701 237.773 94.6259 237.708 94.5972 237.624Z" fill="#F03960"/>
<path d="M135.464 251.171C135.464 251.171 101.103 228.598 95.8591 208.514C91.0551 190.115 98.0358 173.3 114.596 141.137C116.964 136.537 119.957 131.835 119.611 126.46C123.92 134.61 129.57 141.74 135.241 148.745C181.079 205.367 135.464 251.171 135.464 251.171Z" fill="#3F4AA7"/>
<path d="M147.454 211.045C145.565 213.421 143.777 215.9 142.037 218.426C140.298 220.953 138.661 223.575 137.114 226.271C135.582 228.975 134.13 231.752 132.876 234.658C131.619 237.56 130.504 240.565 129.72 243.718L130.793 243.386C127.918 240.349 125.083 237.238 122.264 234.12C119.462 230.98 116.655 227.846 113.924 224.626C111.183 221.42 108.466 218.183 105.835 214.859C103.197 211.541 100.636 208.144 98.2124 204.607L99.8739 207.388C100.433 208.313 101.042 209.194 101.624 210.101C102.206 211.009 102.814 211.893 103.427 212.772C104.041 213.65 104.637 214.548 105.28 215.399C107.781 218.876 110.425 222.213 113.096 225.521C115.788 228.806 118.536 232.029 121.345 235.183C124.147 238.348 126.994 241.448 129.916 244.483L130.704 245.301L130.989 244.151C131.744 241.11 132.763 238.144 133.952 235.269C135.149 232.398 136.48 229.59 137.929 226.86C139.365 224.12 140.912 221.455 142.497 218.814C144.084 216.174 145.764 213.608 147.454 211.045Z" fill="#4D51AC"/>
<path d="M144.187 195.723C142.007 197.944 139.939 200.302 137.906 202.704C135.896 205.129 133.962 207.642 132.139 210.264C130.314 212.884 128.602 215.616 127.052 218.476C125.526 221.351 124.129 224.342 123.083 227.527L124.201 227.297C122.392 225.082 120.624 222.805 118.838 220.553L113.545 213.727C111.793 211.438 110.049 209.143 108.318 206.83C106.564 204.539 104.885 202.18 103.156 199.857C104.654 202.375 106.234 204.829 107.828 207.272C109.438 209.701 111.077 212.106 112.766 214.466C114.443 216.836 116.161 219.168 117.902 221.479C119.635 223.8 121.421 226.061 123.224 228.323L123.953 229.239L124.342 228.093C125.379 225.037 126.684 222.089 128.172 219.262C129.644 216.423 131.29 213.697 133.011 211.031C134.738 208.368 136.552 205.774 138.426 203.233C140.279 200.668 142.236 198.204 144.187 195.723Z" fill="#4D51AC"/>
<path d="M143.363 179.457C140.887 181.688 138.535 184.092 136.225 186.549C133.941 189.036 131.735 191.62 129.63 194.311C127.517 196.998 125.509 199.775 123.586 202.66C121.704 205.572 119.95 208.701 118.89 212.229L120.203 212.478C120.05 208.921 118.838 205.618 117.454 202.61C116.053 199.598 114.58 196.659 113.01 193.769C111.456 190.875 109.798 188.048 108.092 185.273C106.369 182.511 104.679 179.739 103.124 176.852C104.422 179.898 106.016 182.775 107.558 185.665C109.131 188.534 110.655 191.424 112.123 194.352C113.577 197.284 115.008 200.245 116.331 203.238C117.629 206.215 118.752 209.316 118.855 212.506L118.989 216.626L120.168 212.754C121.173 209.453 122.804 206.418 124.642 203.551C126.474 200.668 128.45 197.874 130.455 195.126C132.472 192.386 134.559 189.71 136.716 187.103C138.851 184.47 141.1 181.961 143.363 179.457Z" fill="#4D51AC"/>
<path d="M133.7 174.495C132.18 175.999 130.743 177.605 129.312 179.219C127.896 180.851 126.518 182.528 125.196 184.26C123.863 185.984 122.583 187.76 121.344 189.574C120.094 191.378 118.915 193.245 117.759 195.13L118.982 195.513C118.853 194.124 118.592 192.829 118.327 191.524C118.053 190.227 117.754 188.942 117.446 187.661C116.814 185.104 116.124 182.572 115.4 180.052C114.674 177.533 113.91 175.027 113.108 172.538C112.278 170.057 111.469 167.572 110.545 165.131L114.348 180.392C114.976 182.933 115.6 185.474 116.185 188.021C116.772 190.552 117.343 193.143 117.647 195.628L117.894 197.65L118.869 196.012C119.992 194.128 121.166 192.286 122.343 190.444C123.529 188.61 124.747 186.802 125.982 185.009C127.227 183.225 128.486 181.451 129.776 179.702C131.049 177.935 132.384 176.229 133.7 174.495Z" fill="#4D51AC"/>
<path d="M134.398 157.914C132.864 159.046 131.452 160.38 130.081 161.764C128.729 163.172 127.449 164.673 126.245 166.246C125.03 167.81 123.897 169.45 122.797 171.115C121.693 172.778 120.662 174.498 119.631 176.212L120.867 176.627C120.777 174.385 120.678 172.14 120.551 169.881C120.397 167.626 120.197 165.356 119.836 163.112C119.487 160.867 118.999 158.655 118.428 156.479C117.824 154.312 117.199 152.16 116.463 150.048C116.895 152.259 117.387 154.445 117.764 156.656C118.173 158.855 118.518 161.062 118.766 163.273C119.007 165.487 119.167 167.704 119.252 169.939L119.521 176.67L119.615 179.056L120.756 177.085C121.755 175.36 122.79 173.666 123.824 171.974C124.862 170.286 125.94 168.634 127.047 167.007C128.164 165.391 129.316 163.804 130.538 162.285C131.742 160.743 133.049 159.311 134.398 157.914Z" fill="#4D51AC"/>
<path d="M129.995 145.784C129.161 146.057 128.396 146.564 127.686 147.137C126.976 147.72 126.334 148.408 125.744 149.152C125.152 149.895 124.639 150.716 124.16 151.564C123.921 151.988 123.716 152.434 123.491 152.871L122.901 154.23L124.171 154.805L124.575 153.452C124.736 153.015 124.881 152.563 125.058 152.133C125.413 151.271 125.806 150.423 126.282 149.635C126.757 148.849 127.291 148.1 127.905 147.437C128.523 146.783 129.204 146.178 129.995 145.784Z" fill="#4D51AC"/>
<path d="M135.594 251.051C134.428 248.997 133.287 246.947 132.219 244.86C131.14 242.78 130.17 240.643 129.223 238.508C127.395 234.192 125.808 229.782 124.546 225.249C123.273 220.721 122.228 216.12 121.324 211.467C120.419 206.882 119.901 202.188 119.828 197.451C119.654 187.966 120.911 178.481 122.503 169.078C123.267 164.354 124.017 159.557 124.122 154.667C124.174 152.227 124.05 149.764 123.644 147.348C123.233 144.936 122.53 142.579 121.513 140.413C121.469 140.318 121.365 140.28 121.283 140.329C121.204 140.375 121.172 140.485 121.21 140.578C122.988 144.983 123.383 149.865 123.053 154.581C122.733 159.324 121.767 163.97 120.805 168.632C118.86 177.977 117.231 187.549 117.027 197.378C116.929 202.28 117.154 207.258 117.94 212.165C118.724 217.003 119.882 221.79 121.431 226.425C124.49 235.7 129.181 244.386 135.334 251.292C135.402 251.367 135.51 251.368 135.575 251.293C135.632 251.227 135.638 251.126 135.594 251.051Z" fill="#4D51AC"/>
<path d="M128.259 265.418C128.259 265.418 88.9401 282.986 66.5654 282.153C63.4641 282.037 60.2848 281.78 57.3741 280.622C53.5786 279.114 50.266 275.272 51.5395 271.922C52.7939 268.62 57.4706 267.763 60.0985 265.258C55.0045 266.09 49.7647 266.769 44.523 266.007C39.2815 265.245 33.9664 262.833 31.0003 258.743C30.4798 258.025 30.0275 257.236 29.9571 256.407C29.767 254.17 32.3556 252.712 34.7896 252.401C37.2235 252.089 39.8546 252.421 42.0834 251.576C35.6353 251.381 29.2813 248.673 24.1385 244.836C18.9956 240.997 14.959 236.086 11.5067 230.971C8.41205 226.387 5.35218 221.256 0 218.93C10.089 218.844 19.5006 215.074 29.5924 215.019C40.2643 214.96 51.2385 219.32 58.7941 226.621C57.2225 223.51 55.7186 219.645 57.9586 217.151C60.1096 214.758 64.4351 215.192 67.8264 216.386C77.2496 219.703 84.4306 226.997 90.4727 234.41C89.4716 231.267 88.7472 227.295 91.5754 225.523C94.1512 223.908 97.9246 225.334 100.659 227.108C107.899 231.805 128.259 265.418 128.259 265.418Z" fill="#F9AB41"/>
<path d="M95.9024 234.143C97.2031 237.121 98.657 240.053 100.18 242.962C101.705 245.871 103.373 248.729 105.16 251.539C106.964 254.337 108.878 257.097 111.021 259.73C113.157 262.364 115.468 264.913 118.092 267.219L118.332 266.031C113.91 267.275 109.439 268.444 104.97 269.596C100.488 270.719 96.0084 271.851 91.487 272.867C86.9724 273.9 82.4415 274.894 77.8709 275.764C73.3032 276.643 68.6994 277.408 64.0323 277.975L67.5753 277.764C68.7561 277.687 69.9221 277.541 71.0977 277.432C72.2748 277.326 73.4416 277.182 74.6076 277.031C75.7729 276.879 76.9477 276.753 78.102 276.56C82.7514 275.89 87.3412 275.016 91.9155 274.099C96.4795 273.153 101.014 272.122 105.514 270.998C110.02 269.887 114.487 268.7 118.93 267.41L120.128 267.062L119.171 266.222C116.638 263.998 114.317 261.561 112.17 259.004C110.031 256.442 108.023 253.784 106.152 251.052C104.264 248.327 102.506 245.533 100.793 242.714C99.0802 239.895 97.488 237.023 95.9024 234.143Z" fill="#F5802D"/>
<path d="M79.4573 229.691C80.457 232.87 81.648 236.01 82.898 239.137C84.1833 242.255 85.5937 245.344 87.1661 248.38C88.7355 251.417 90.4705 254.4 92.4147 257.295C94.3846 260.172 96.5348 262.983 99.0531 265.556L99.416 264.375C96.3412 265.008 93.2281 265.571 90.1305 266.163L80.8029 267.843C77.6869 268.385 74.5687 268.916 71.4416 269.425C68.3226 269.969 65.1771 270.405 62.0412 270.908C65.2448 270.721 68.4293 270.427 71.6109 270.111C74.7873 269.774 77.9563 269.398 81.107 268.951C84.2628 268.522 87.4024 268.033 90.5339 267.514C93.6698 267.006 96.7762 266.418 99.8923 265.814L101.155 265.57L100.255 264.633C97.8547 262.133 95.6993 259.431 93.7559 256.613C91.7904 253.804 90.0259 250.885 88.3578 247.925C86.6971 244.962 85.1469 241.947 83.679 238.902C82.1773 235.866 80.8258 232.779 79.4573 229.691Z" fill="#F5802D"/>
<path d="M63.3758 222.44C64.2319 225.907 65.3177 229.34 66.4786 232.759C67.6807 236.17 69.0175 239.552 70.5081 242.892C71.9914 246.237 73.6161 249.526 75.3902 252.788C77.2091 256.023 79.3064 259.245 82.1486 262L83.0717 260.869C79.5706 259.258 75.7604 258.782 72.1446 258.617C68.5154 258.467 64.9194 258.422 61.3212 258.492C57.7253 258.544 54.141 258.731 50.5826 258.99C47.0266 259.269 43.4777 259.514 39.889 259.572C43.4964 259.838 47.0957 259.736 50.6805 259.693C54.261 259.609 57.8364 259.582 61.4191 259.627C64.9982 259.687 68.5935 259.785 72.163 260.001C75.7045 260.233 79.274 260.693 82.3974 262.17L86.4299 264.078L83.3205 261.04C80.6667 258.448 78.5975 255.391 76.7984 252.22C74.9794 249.046 73.3209 245.779 71.7228 242.508C70.1379 239.228 68.6509 235.912 67.2677 232.564C65.8462 229.226 64.6051 225.838 63.3758 222.44Z" fill="#F5802D"/>
<path d="M53.5639 229.215C54.2176 231.409 55.0148 233.573 55.8208 235.739C56.6541 237.896 57.5478 240.041 58.5254 242.159C59.489 244.283 60.5306 246.384 61.6289 248.463C62.7132 250.547 63.8955 252.595 65.1064 254.631L66.1127 253.653C64.7089 253.088 63.3272 252.698 61.9329 252.306C60.5417 251.927 59.1496 251.576 57.7569 251.238C54.9677 250.579 52.1704 249.986 49.3685 249.431C46.566 248.88 43.7575 248.372 40.9435 247.907C38.1252 247.474 35.3101 247.019 32.4809 246.695L49.1473 250.605C51.9201 251.261 54.6902 251.919 57.4448 252.62C60.1868 253.311 62.9775 254.046 65.5275 254.983L67.6011 255.747L66.5337 254.007C65.3059 252.004 64.1457 249.972 62.9871 247.939C61.8417 245.901 60.7382 243.844 59.6561 241.779C58.5887 239.708 57.5375 237.629 56.5275 235.534C55.4911 233.445 54.5466 231.328 53.5639 229.215Z" fill="#F5802D"/>
<path d="M37.974 220.354C38.263 222.378 38.8101 224.385 39.4275 226.379C40.0768 228.365 40.8532 230.329 41.7397 232.256C42.6101 234.188 43.599 236.082 44.627 237.954C45.6507 239.829 46.7684 241.664 47.8804 243.495L48.9245 242.521C46.7204 241.498 44.5077 240.483 42.2688 239.488C40.0178 238.52 37.7296 237.59 35.3832 236.827C33.041 236.05 30.6584 235.422 28.2666 234.893C25.866 234.399 23.4699 233.932 21.0551 233.591C23.4069 234.271 25.7672 234.882 28.0897 235.614C30.4203 236.31 32.723 237.072 34.9803 237.927C37.2356 238.79 39.4531 239.735 41.6468 240.757L48.2628 243.827L50.6076 244.915L49.3075 242.853C48.1676 241.046 47.077 239.221 45.9892 237.398C44.9057 235.572 43.8788 233.726 42.8899 231.866C41.9177 230.001 40.9912 228.117 40.1668 226.199C39.3111 224.288 38.6149 222.333 37.974 220.354Z" fill="#F5802D"/>
<path d="M24.0066 218.564C23.8357 219.495 23.9243 220.475 24.1057 221.437C24.2961 222.403 24.6233 223.356 25.031 224.286C25.4381 225.219 25.9597 226.116 26.5263 226.991C26.8096 227.43 27.1313 227.845 27.4349 228.276L28.434 229.511L29.6505 228.582L28.5582 227.528C28.2227 227.158 27.8636 226.797 27.5416 226.415C26.8975 225.651 26.2863 224.856 25.7774 224.012C25.2679 223.17 24.8257 222.291 24.5086 221.376C24.2012 220.463 23.974 219.513 24.0066 218.564Z" fill="#F5802D"/>
<path d="M128.211 265.234C125.626 265.333 123.06 265.409 120.494 265.398C117.931 265.401 115.369 265.27 112.819 265.119C107.716 264.732 102.644 264.068 97.6235 263.034C92.6038 262.011 87.6312 260.736 82.6844 259.3C77.8002 257.897 73.0139 256.073 68.4182 253.801C59.2012 249.28 50.7313 243.394 42.5141 237.227C38.3668 234.165 34.1418 231.078 29.4918 228.561C27.1713 227.305 24.7374 226.206 22.2012 225.4C19.6662 224.6 17.0317 224.107 14.4163 224.008C14.3019 224.003 14.2122 224.084 14.2157 224.187C14.2196 224.285 14.3094 224.37 14.4181 224.38C19.5834 224.859 24.4867 226.894 28.8517 229.539C33.2486 232.188 37.2148 235.406 41.1997 238.629C49.1764 245.104 57.536 251.389 66.8871 256.439C71.5527 258.956 76.4597 261.201 81.5906 262.875C86.6544 264.517 91.8647 265.777 97.1317 266.589C107.651 268.251 118.454 268.064 128.307 265.602C128.416 265.575 128.472 265.471 128.433 265.372C128.4 265.286 128.306 265.23 128.211 265.234Z" fill="#F5802D"/>
<path d="M143.08 71.4521C143.08 71.4521 144.137 76.1723 138.706 81.9819C138.706 81.9819 149.979 78.7138 153.247 71.4521H143.08Z" fill="#F5802D"/>
<path d="M159.548 74.3757H134.409C131.983 74.3757 130.017 72.4097 130.017 69.9845V54.4871C130.017 52.0611 131.983 50.0951 134.409 50.0951H159.548C161.973 50.0951 163.939 52.0611 163.939 54.4871V69.9845C163.939 72.4097 161.973 74.3757 159.548 74.3757Z" fill="#F5802D"/>
<path d="M140.792 62.2354C140.792 63.5021 139.766 64.5289 138.499 64.5289C137.233 64.5289 136.206 63.5021 136.206 62.2354C136.206 60.9694 137.233 59.9426 138.499 59.9426C139.766 59.9426 140.792 60.9694 140.792 62.2354Z" fill="#FFFEF2"/>
<path d="M149.271 62.2354C149.271 63.5021 148.245 64.5289 146.978 64.5289C145.712 64.5289 144.685 63.5021 144.685 62.2354C144.685 60.9694 145.712 59.9426 146.978 59.9426C148.245 59.9426 149.271 60.9694 149.271 62.2354Z" fill="#FFFEF2"/>
<path d="M157.749 62.2354C157.749 63.5021 156.723 64.5289 155.456 64.5289C154.19 64.5289 153.163 63.5021 153.163 62.2354C153.163 60.9694 154.19 59.9426 155.456 59.9426C156.723 59.9426 157.749 60.9694 157.749 62.2354Z" fill="#FFFEF2"/>
<path d="M99.5294 53.8703C99.5294 59.6762 104.237 64.3832 110.044 64.3832C115.85 64.3832 120.557 59.6762 120.557 53.8703C120.557 48.0644 115.85 43.3581 110.044 43.3581C104.237 43.3581 99.5294 48.0644 99.5294 53.8703Z" fill="#F1487C"/>
<path d="M104.863 52.7883C104.863 52.5668 104.888 52.3518 104.933 52.1443C105.228 50.776 106.445 49.7499 107.902 49.7499C108.738 49.7499 109.494 50.4116 110.044 50.957C110.593 50.4116 111.349 49.7499 112.185 49.7499C113.642 49.7499 114.859 50.776 115.154 52.1443C115.199 52.3518 115.224 52.5668 115.224 52.7883L115.22 52.9363L115.224 53.1048C115.224 56.3721 110.044 59.0204 110.044 59.0204C110.044 59.0204 104.863 56.3721 104.863 53.1048L104.867 52.9363L104.863 52.7883Z" fill="white"/>
<path d="M112.105 62.8014L119.736 67.568L116.67 58.0355L112.105 62.8014Z" fill="#F1487C"/>
<path d="M94.0782 89.2621C94.0782 97.1988 100.512 103.633 108.45 103.633C116.387 103.633 122.822 97.1988 122.822 89.2621C122.822 81.3253 116.387 74.8916 108.45 74.8916C100.512 74.8916 94.0782 81.3253 94.0782 89.2621Z" fill="#4D51AC"/>
<path d="M111.268 101.471L121.701 107.986L117.511 94.9554L111.268 101.471Z" fill="#4D51AC"/>
<path d="M114.635 87.3411C114.635 86.485 113.937 85.7887 113.079 85.7887H110.545C110.54 85.0365 110.484 83.9641 110.428 83.1375C110.392 82.6046 110.127 82.3131 109.909 82.1615C109.296 81.7346 108.428 81.9598 108.258 82.0099C108.005 82.085 107.842 82.3286 107.868 82.5906C108.037 84.2467 106.951 86.1553 105.849 86.9723C105.816 86.9951 105.738 87.0297 105.644 87.0687V86.7956C105.644 86.4939 105.399 86.2488 105.097 86.2488H102.227C101.925 86.2488 101.68 86.4939 101.68 86.7956V94.2797C101.68 94.5815 101.925 94.8266 102.227 94.8266H105.097H105.104C105.385 94.8229 105.6 94.569 105.605 94.2878L105.611 93.9868H112.46C113.088 93.9868 113.666 93.5437 113.739 92.9195C113.811 92.3071 113.272 92.14 113.226 91.9869C113.617 91.7021 114.375 91.563 114.375 91.0573C114.375 90.5075 113.871 90.4332 113.828 90.2896C114.218 90.0048 114.635 89.5455 114.635 89.0384C114.635 88.7314 114.32 88.4378 114.156 88.1897C114.32 87.9417 114.635 87.6487 114.635 87.3411Z" fill="white"/>
<path d="M54.0806 132.96L89.6939 122.073L152.888 247.019L117.274 257.906L54.0806 132.96Z" fill="#9FBFE8"/>
<path d="M96.7342 135.992L80.1742 184.553L92.1915 208.313L107.982 158.23L96.7342 135.992Z" fill="#C1DCF4"/>
<path d="M121.324 184.61L106.716 237.031L117.273 257.906L123.404 256.032L134.354 210.375L121.324 184.61Z" fill="#C1DCF4"/>
<path d="M117.273 257.906L64.1503 152.871L54.0808 132.96L89.694 122.073L92.7629 128.14L99.765 141.983L152.888 247.019L117.273 257.906ZM143.267 268.651C141.591 269.163 138.813 266.786 137.079 263.355C135.341 259.92 135.292 256.709 136.968 256.196C138.645 255.684 141.423 258.061 143.161 261.496C144.896 264.926 144.944 268.138 143.267 268.651ZM63.4767 121.296L72.5937 118.51C72.7586 118.459 73.0251 118.691 73.1929 119.022C73.36 119.353 73.3681 119.664 73.2032 119.714L64.0855 122.501C63.9243 122.551 63.6541 122.32 63.487 121.989C63.3192 121.658 63.3148 121.346 63.4767 121.296ZM159.962 256.705L88.7628 115.929C85.9603 110.388 81.4994 106.57 78.7926 107.397L49.2058 116.442C46.4994 117.269 46.575 122.428 49.3772 127.968L120.577 268.745C123.379 274.285 127.843 278.102 130.549 277.275L160.136 268.231C162.842 267.403 162.764 262.246 159.962 256.705Z" fill="#293F9C"/>
<path d="M142.657 267.446C144.009 267.032 143.972 264.444 142.572 261.676C141.17 258.904 138.928 256.988 137.577 257.401C136.225 257.814 136.264 260.403 137.667 263.176C139.066 265.944 141.305 267.86 142.657 267.446ZM136.967 256.196C138.645 255.684 141.423 258.061 143.161 261.497C144.895 264.926 144.944 268.138 143.266 268.651C141.591 269.163 138.813 266.786 137.079 263.355C135.341 259.92 135.292 256.709 136.967 256.196Z" fill="#E6E6E4"/>
<path d="M137.577 257.401C138.928 256.988 141.17 258.904 142.572 261.676C143.972 264.444 144.008 267.032 142.656 267.446C141.305 267.86 139.066 265.943 137.667 263.176C136.265 260.403 136.225 257.814 137.577 257.401Z" fill="#293F9C"/>
<path d="M130.549 277.275C129.783 277.51 128.876 277.371 127.905 276.927C127.53 276.755 127.147 276.538 126.758 276.281C126.43 276.062 126.098 275.813 125.765 275.538C125.451 275.278 125.136 274.993 124.823 274.686C124.506 274.375 124.192 274.043 123.881 273.688C123.543 273.304 123.209 272.894 122.883 272.461C122.462 271.904 122.054 271.308 121.665 270.681C121.281 270.065 120.917 269.418 120.577 268.745L49.3771 127.968C48.7502 126.729 48.2597 125.508 47.9063 124.351C47.7076 123.7 47.5523 123.069 47.4402 122.466C47.3542 122.001 47.2938 121.554 47.2594 121.126C47.228 120.737 47.2179 120.364 47.2294 120.01C47.2407 119.663 47.2728 119.333 47.3258 119.025C47.3816 118.703 47.4603 118.403 47.5624 118.13C47.682 117.809 47.8332 117.525 48.0168 117.284C48.2212 117.014 48.4656 116.796 48.7497 116.636L42.3951 120.203C42.111 120.362 41.8672 120.58 41.6624 120.85C41.4793 121.092 41.3275 121.376 41.2081 121.697C41.106 121.97 41.0272 122.269 40.9717 122.592C40.9189 122.9 40.8863 123.229 40.8754 123.577C40.8639 123.93 40.8734 124.303 40.905 124.693C40.9398 125.121 40.9999 125.568 41.0859 126.033C41.1978 126.635 41.3533 127.266 41.552 127.918C41.9054 129.075 42.3957 130.296 43.0232 131.535L114.223 272.311C114.563 272.983 114.927 273.631 115.311 274.248C115.7 274.875 116.108 275.47 116.529 276.028C116.855 276.46 117.189 276.87 117.527 277.255C117.838 277.609 118.152 277.942 118.469 278.252C118.782 278.56 119.096 278.844 119.411 279.104C119.743 279.38 120.075 279.628 120.404 279.847C120.792 280.105 121.177 280.322 121.551 280.494C122.522 280.938 123.429 281.076 124.195 280.841L153.782 271.797L160.136 268.231L130.549 277.275Z" fill="#2B357D"/>
<path d="M180.298 116.754L164.602 122.634L160.017 110.397L175.714 104.517L180.298 116.754Z" fill="#4D51AC"/>
<path d="M193.973 119.964L177.263 117.776L172.716 105.64L183.919 93.1285L193.973 119.964Z" fill="#4D51AC"/>
<path d="M171.909 117.364L161.909 121.11L158.988 113.314L168.988 109.569L171.909 117.364Z" fill="#4D51AC"/>
<path d="M178.468 131.141L173.906 132.85L169.404 120.835L173.967 119.125L178.468 131.141Z" fill="#4D51AC"/>
<path d="M193.973 120.982C193.56 120.982 193.173 120.729 193.02 120.322L182.966 93.4855C182.769 92.9592 183.036 92.3726 183.562 92.1753C184.088 91.9788 184.675 92.2453 184.871 92.7715L194.926 119.608C195.123 120.133 194.855 120.72 194.33 120.917C194.212 120.961 194.091 120.982 193.973 120.982Z" fill="#3C49A6"/>
<path d="M177.262 118.794C176.85 118.794 176.462 118.542 176.309 118.134L171.763 105.997C171.566 105.47 171.833 104.884 172.358 104.687C172.886 104.491 173.472 104.757 173.668 105.283L178.215 117.419C178.411 117.946 178.145 118.532 177.619 118.729C177.502 118.774 177.38 118.794 177.262 118.794Z" fill="#3C49A6"/>
<path d="M178.715 167.359L153.46 168.559L157.418 159.314C157.418 159.314 161.651 158.044 179.985 163.013L178.715 167.359Z" fill="#F9A776"/>
<path d="M141.124 152.835L153.564 168.66L157.418 159.314L150.176 148.631C146.978 149.59 143.922 150.95 141.124 152.835Z" fill="#F9A776"/>
<path d="M155.611 152.484L145.442 136.804C143.392 132 136.697 131.283 133.694 135.547C132.23 137.627 132.117 140.978 133.438 143.168L142.466 162.719C145.043 159.082 152.205 153.917 155.611 152.484Z" fill="#F36629"/>
<path d="M94.3647 252.965L131.257 176.802L115.333 170.009C96.1351 198.525 84.4888 250.807 84.4888 250.807L94.3647 252.965Z" fill="#EF2D5B"/>
<path d="M145.675 128.397C142.884 126.569 140.467 124.304 138.71 121.219C137.559 123.489 135.985 126.916 134.501 131.248C135.405 131.05 136.397 131.355 137.258 131.666C140.828 132.87 142.909 136.967 146.531 137.775C146.344 137.578 144.024 132.234 144.024 132.234L145.675 128.397Z" fill="#F9A776"/>
<path d="M145.675 128.397L148.079 122.814L140.407 118.123C140.407 118.123 139.721 119.226 138.71 121.219C140.467 124.304 142.885 126.569 145.675 128.397Z" fill="#F6894C"/>
<path d="M137.946 103.394C141.388 100.994 147.617 100.696 150.73 103.85C151.737 104.87 151.879 107.192 152.213 108.763C152.273 109.044 152.673 111.067 152.673 111.067L155.936 115.481L154.181 117.349L154.904 123.41C154.904 123.41 145.233 124.354 141.789 121.97C138.355 119.594 134.175 114.036 135.541 106.869C135.833 105.336 136.774 104.212 137.946 103.394Z" fill="#F9A776"/>
<path d="M87.9965 249.179L129.703 175.541L115.307 167.46C94.7961 187.616 78.2795 246.392 78.2795 246.392L87.9965 249.179Z" fill="#F03960"/>
<path d="M146.531 137.775C143.772 135.491 140.93 130.349 138.39 127.748C137.785 127.103 136.961 127.203 136.097 126.975C126.164 132.826 125.869 136.905 120.726 159.021C120.455 160.182 119.506 164.069 115.307 167.46L129.601 180.178L133.332 173.307C133.332 173.306 150.816 152.202 146.531 137.775Z" fill="#F5802D"/>
<path d="M131.36 176.938L133.332 173.307C133.332 173.307 133.332 173.306 133.333 173.305C133.332 173.306 133.332 173.307 133.332 173.307L131.36 176.938Z" fill="#4042A1"/>
<path d="M129.601 180.178L126.235 177.184C134.636 169.733 139.804 159.957 143.287 149.541L145.752 151.241C142.239 162.464 133.559 173.031 133.336 173.301C133.335 173.303 133.335 173.303 133.334 173.305C133.333 173.305 133.333 173.305 133.333 173.306C133.332 173.306 133.332 173.307 133.332 173.307L131.36 176.938L129.601 180.178Z" fill="#F5762B"/>
<path d="M171.183 130.928L165.576 155.578L160.304 145.094C160.304 145.094 157.637 144.871 167.335 128.54L171.183 130.928Z" fill="#F9A776"/>
<path d="M169.88 131.418L176.724 128.843C178.044 128.347 178.745 126.908 178.325 125.563L177.064 121.532L174.495 120.389C174.495 120.389 172.859 122.963 171.374 122.796C171.374 122.796 169.981 123.157 170.004 121.611C170.025 120.065 169.211 118.937 168.092 120.492C166.973 122.048 166.862 125.798 167.335 128.54L169.88 131.418Z" fill="#F9A776"/>
<path d="M146.718 148.535L165.576 155.578L160 143.875L152.261 140.235C150.029 142.718 148.126 145.469 146.718 148.535Z" fill="#F9A776"/>
<path d="M154.533 139.483L139.287 131.885C135.43 129.055 129.972 131.634 129.71 136.411C129.583 138.74 131.094 141.438 133.148 142.545L149.367 153.735C149.603 149.655 152.614 142.215 154.533 139.483Z" fill="#F9AB41"/>
<path d="M134.696 105.494C134.696 105.494 132.863 101.295 140.053 100.401C149.509 99.2266 158.501 94.3223 151.764 108.208C151.764 108.208 151.737 106.954 151.324 105.193C151.324 105.193 148.709 109.661 144.246 109.35C144.246 109.35 147.435 106.418 147.194 104.756C147.194 104.756 144.427 108.666 140.531 109.072L141.114 115.107L140.564 117.776L137.603 123.503C137.603 123.503 131.321 122.768 134.043 121.931C136.691 121.116 134.927 118.591 134.501 117.519C133.994 116.243 132.525 114.396 132.183 112.688C130.655 105.033 134.696 105.494 134.696 105.494Z" fill="#2B357D"/>
<path d="M141.583 114.803C141.583 114.803 140.809 110.448 139.095 110.963C137.382 111.478 137.051 113.71 137.729 116.501C138.407 119.293 140.716 118.377 140.716 118.377L142.706 117.845L141.583 114.803Z" fill="#F9A776"/>
<path d="M138.645 146.338C136.286 144.735 134.034 143.262 132.656 142.243C132.816 142.353 132.98 142.454 133.148 142.545L138.645 146.338ZM132.278 141.957C129.948 140.148 129.594 137.934 129.712 136.387C129.712 136.395 129.711 136.403 129.71 136.411C129.602 138.396 130.684 140.65 132.278 141.957Z" fill="#F5792B"/>
<path d="M150.637 148.039C150.639 148.032 150.64 148.027 150.642 148.021C150.643 148.021 150.643 148.021 150.643 148.021C150.641 148.027 150.639 148.033 150.637 148.039Z" fill="#F89C65"/>
<path d="M149.367 153.735C149.367 153.735 144.114 150.076 139.222 146.731C139.029 146.599 138.837 146.468 138.645 146.338L133.148 142.545C132.98 142.454 132.816 142.353 132.656 142.243C132.534 142.152 132.419 142.066 132.312 141.983C132.3 141.975 132.289 141.966 132.278 141.957C130.684 140.65 129.602 138.396 129.71 136.411C129.711 136.403 129.711 136.395 129.711 136.387C129.798 135.255 130.135 134.48 130.135 134.48C130.685 141.251 150.512 147.976 150.643 148.02C150.64 148.027 150.639 148.032 150.637 148.039C149.429 151.321 149.367 153.735 149.367 153.735Z" fill="#F89F3C"/>
<path d="M260.829 181.217C259.24 182.327 258.214 183.021 256.187 183.68C249.453 185.871 243.332 181.136 236.549 179.102C235.608 179.102 234.345 179.102 233.205 179.102C221.381 189.256 211.45 206.556 211.45 206.556L250.621 229.02L253.438 226.95C240.486 202.444 228.505 203.655 228.505 203.655C234.512 202.73 248.277 191.306 248.277 191.306C260.902 222.237 269.519 264.526 269.519 264.526L272.092 264.865C273.574 214.372 267.126 191.843 260.829 181.217Z" fill="#4D51AC"/>
<path d="M252.588 227.616L252.561 227.594L253.438 226.95L252.588 227.616ZM253.438 226.95C246.937 214.648 240.68 208.828 236.06 206.08C246.565 212.077 253.438 226.95 253.438 226.95ZM228.505 203.655C228.532 203.651 228.559 203.647 228.586 203.642C228.532 203.652 228.505 203.655 228.505 203.655ZM234.06 201.374C240.478 197.778 248.277 191.306 248.277 191.306C241.931 196.607 237.261 199.642 234.06 201.374Z" fill="#BDB6E1"/>
<path d="M252.561 227.594L222.22 202.875L248.277 191.306C248.277 191.306 240.478 197.778 234.06 201.374C230.713 203.185 228.969 203.574 228.586 203.642C228.559 203.647 228.532 203.651 228.505 203.655C231.181 203.843 233.711 204.74 236.06 206.08C240.68 208.828 246.937 214.648 253.438 226.95L252.561 227.594Z" fill="#434CA8"/>
<path d="M272.256 261.284C272.234 261.283 272.207 261.283 272.185 261.283C272.781 234.764 271.127 216.269 268.491 203.279C271.203 216.345 273.301 235.562 272.256 261.284Z" fill="#BDB6E1"/>
<path d="M272.092 264.865C272.128 263.655 272.159 262.462 272.186 261.283C272.208 261.283 272.234 261.283 272.256 261.284C272.208 262.464 272.154 263.658 272.092 264.865Z" fill="#A8AADC"/>
<path d="M266.556 195.247C264.799 189.065 262.806 184.554 260.829 181.217C260.83 181.217 260.83 181.217 260.83 181.217C260.874 181.276 263.775 185.274 266.556 195.247Z" fill="#A8AADC"/>
<path d="M272.092 264.865L267.378 222.945C266.127 211.823 263.457 200.906 259.431 190.462L256.801 183.64C257.981 183.155 259.546 182.202 260.83 181.217C262.807 184.554 264.799 189.065 266.556 195.247C266.559 195.259 266.563 195.271 266.566 195.283C267.22 197.63 267.871 200.294 268.491 203.279C271.128 216.269 272.782 234.764 272.186 261.283C272.159 262.462 272.128 263.655 272.092 264.865Z" fill="#434CA8"/>
<path d="M250.621 229.02C250.621 229.02 239.738 243.176 240.585 245.062C241.433 246.948 257.397 233.79 257.397 233.79C257.397 233.79 259.863 230.584 253.438 226.949L250.621 229.02Z" fill="#F03767"/>
<path d="M269.519 264.526C269.519 264.526 268.607 267.682 267.096 270.189C265.586 272.696 262.734 275.01 268.161 278.227C268.161 278.227 273.972 278.259 274.669 274.785C275.367 271.31 272.092 264.866 272.092 264.866L269.519 264.526Z" fill="#F03767"/>
<path d="M223.862 122.718C223.045 123.547 222.377 124.72 222.495 125.928C222.667 127.686 224.323 128.651 225.162 130.124C225.383 130.511 225.551 130.963 225.515 131.43C225.455 132.209 224.838 132.825 224.183 133.097C223.528 133.37 222.822 133.388 222.137 133.512C219.38 134.008 216.913 136.414 216.065 139.431C215.719 140.658 215.635 142.02 216.079 143.177C216.735 144.882 218.386 145.802 220.007 146.183C221.627 146.564 223.324 146.544 224.919 147.036C226.513 147.526 228.079 148.705 228.45 150.524C228.68 151.656 228.418 152.86 228.521 154.02C228.742 156.521 230.641 158.408 232.7 159.313C234.378 160.05 236.268 160.293 238.042 159.768C239.817 159.242 241.452 157.895 242.27 156.031C243.105 154.131 243.089 151.801 244.264 150.139C245.265 148.725 246.918 148.121 248.49 147.913C250.063 147.705 251.659 147.81 253.213 147.445C256.039 146.781 258.731 144.097 258.779 140.859C258.824 137.784 256.621 135.371 254.393 133.684C252.591 132.319 250.467 130.842 250.196 128.385C249.92 125.879 251.763 123.469 251.525 120.956C251.322 118.832 249.712 117.319 248.166 116.129C245.655 114.198 242.992 112.511 240.216 111.092C238.654 110.295 236.465 109.417 234.798 110.62C233.697 111.415 233.478 112.96 233.006 114.216C231.185 119.073 227 119.536 223.862 122.718Z" fill="#2B357D"/>
<path d="M230.128 141.626L213.996 164.938L216.173 170.878C216.173 170.878 230.015 155.08 231.517 151.859C233.018 148.638 233.911 146.941 232.784 143.374C231.655 139.808 230.128 141.626 230.128 141.626Z" fill="#F1487C"/>
<path d="M194.246 164.734L216.173 170.878L213.996 164.938C213.996 164.938 212.519 162.617 193.946 162.359L194.246 164.734Z" fill="#F1487C"/>
<path d="M196.552 163.507C196.434 163.387 195.98 163.524 195.352 163.797L195.68 164.182C194.897 166.868 193.189 170.221 191.578 171.158C189.967 172.094 189.767 170.727 190.452 169.335C191.136 167.942 189.808 167.68 189.808 167.68C189.041 167.172 186.17 168.562 184.462 169.767C184.005 170.088 183.411 169.618 183.618 169.099L184.939 165.785L186.601 164.189L186.628 164.146C184.164 164.3 181.739 165.174 179.783 163.324L177.893 166.236L181.93 171.759L190.539 172.25L196.759 167.334C196.759 167.334 197.968 164.944 196.552 163.507Z" fill="#F9A776"/>
<path d="M186.602 165.366C186.647 165.643 187.285 168.139 187.768 167.969C188.226 167.807 193.041 164.806 195.352 163.797L194.128 162.359L188.177 162.676L186.601 164.189C186.223 164.7 186.602 165.366 186.602 165.366Z" fill="#F68951"/>
<path d="M187.767 167.969C187.284 168.139 186.646 165.643 186.601 165.366C186.601 165.366 186.222 164.701 186.601 164.189L184.939 165.785L183.617 169.099C183.411 169.618 184.005 170.088 184.462 169.767C184.95 169.423 186.072 170.069 186.615 169.653C187.555 168.928 187.422 168.091 188.009 167.878V167.849C187.899 167.907 187.81 167.953 187.767 167.969Z" fill="#F68951"/>
<path d="M195.351 163.797C193.253 164.713 189.098 167.266 188.01 167.849V167.878C188.814 167.587 189.491 167.47 189.808 167.68C189.808 167.68 191.135 167.942 190.451 169.335C189.767 170.727 189.967 172.094 191.577 171.158C193.188 170.221 194.896 166.868 195.679 164.182L195.351 163.797Z" fill="#F9A776"/>
<path d="M216.173 170.878C216.173 170.878 216.173 170.878 216.173 170.877V170.878ZM217.182 169.719C217.205 169.693 217.228 169.667 217.251 169.639L217.238 169.655L217.182 169.719Z" fill="#F8A2CD"/>
<path d="M228.416 144.1L230.002 141.795C230.002 141.796 230.001 141.798 229.999 141.799C229.974 141.839 229.946 141.883 229.916 141.932L228.416 144.1Z" fill="#272C65"/>
<path d="M216.173 170.878C216.173 170.878 227.71 145.113 228.396 144.129L228.416 144.1L229.916 141.932C229.224 143.07 227.716 146.47 227.274 147.432C226.82 148.446 226.437 149.495 226.281 150.582C226.148 151.344 226.126 152.123 226.215 152.895C226.141 154.398 226.778 155.867 227.912 156.887H227.88L227.917 156.913L222.723 163.241L217.251 169.639C217.228 169.667 217.205 169.693 217.182 169.719L216.173 170.877C216.173 170.878 216.173 170.878 216.173 170.878Z" fill="#F0376B"/>
<path d="M186.628 164.146C186.771 163.975 187.005 163.826 187.376 163.728C188.872 163.336 189.741 162.249 187.943 161.588C186.145 160.926 182.501 161.823 179.985 163.013L179.783 163.324C181.739 165.174 184.164 164.3 186.628 164.146Z" fill="#F9A776"/>
<path d="M244.138 139.385C241.883 139.809 230.365 139.864 229.924 141.997C229.924 141.997 226.982 148.014 226.272 152.361C225.996 154.044 226.643 155.747 227.912 156.887L231.419 160.037C231.419 160.037 236.554 163.864 231.015 176.541C230.474 177.782 231.703 178.47 233.125 179.102L238.41 181.589C245.193 183.623 249.436 185.884 256.22 183.849C257.528 183.457 259.661 182.173 261.222 180.909C262.346 179.998 262.815 178.504 262.441 177.107C261.619 174.037 252.909 167.05 252.808 162.016C252.516 147.454 250.365 140.192 244.138 139.385Z" fill="#F1487C"/>
<path d="M251.467 184.686C251.144 184.686 250.826 184.671 250.511 184.638C250.691 184.644 250.872 184.647 251.054 184.647C252.652 184.648 254.338 184.414 256.219 183.849C256.399 183.796 256.594 183.724 256.801 183.64C256.594 183.724 256.399 183.796 256.219 183.849C254.501 184.365 252.939 184.686 251.467 184.686Z" fill="#5244A4"/>
<path d="M256.801 183.64C257.98 183.155 259.545 182.202 260.83 181.217C260.829 181.217 260.829 181.217 260.829 181.217C259.545 182.202 257.98 183.155 256.801 183.64Z" fill="#4640A0"/>
<path d="M244.838 183.621C242.833 183.118 241.035 182.517 239.485 181.919C241.426 182.527 243.166 183.135 244.838 183.621Z" fill="#5244A4"/>
<path d="M251.054 184.647C250.872 184.647 250.691 184.644 250.511 184.638C250.49 184.636 250.469 184.634 250.448 184.632C248.441 184.412 246.563 184.053 244.838 183.621C243.166 183.135 241.426 182.528 239.485 181.92C235.906 180.539 233.648 179.178 233.205 179.102C233.457 179.055 233.726 179.034 234.011 179.034C235.259 179.034 236.836 179.432 238.818 179.831C240.801 180.23 243.189 180.629 246.06 180.629C248.876 180.629 252.157 180.245 255.975 179.102C257.604 178.373 259.143 177.04 257.108 175.683C245.269 169.765 247.263 158.77 247.395 147.596C248.028 147.924 248.733 148.232 249.524 148.567C249.96 148.751 250.715 148.98 251.698 149.241C252.368 152.606 252.705 156.852 252.809 162.016C252.909 167.05 261.619 174.037 262.441 177.107C262.525 177.424 262.567 177.745 262.567 178.063C262.568 179.151 262.091 180.205 261.222 180.909C261.094 181.011 260.964 181.114 260.83 181.217C259.546 182.202 257.981 183.155 256.801 183.64C256.594 183.724 256.399 183.796 256.22 183.849C254.338 184.414 252.652 184.648 251.054 184.647ZM244.099 139.443C244.098 139.409 244.11 139.39 244.138 139.385C244.23 139.397 244.322 139.41 244.414 139.426C244.307 139.426 244.202 139.432 244.099 139.443Z" fill="#F0376B"/>
<path d="M242.268 132.219L234.524 131.555C234.524 131.555 235.2 134.468 234.921 137.141C235.261 137.313 235.614 137.473 235.87 137.729C238.034 138.162 240.196 138.039 242.006 137.191C241.764 135.97 241.7 134.297 242.268 132.219Z" fill="#F5763C"/>
<path d="M235.87 137.729C235.614 137.473 235.261 137.313 234.921 137.141C234.792 138.38 234.458 139.569 233.752 140.389C231.527 142.978 230.689 146.723 234.99 146.86C239.291 146.996 242.076 144.938 242.897 139.532C242.897 139.532 242.311 138.715 242.007 137.191C240.196 138.039 238.034 138.162 235.87 137.729Z" fill="#F68951"/>
<path d="M248.273 122.305C247.342 129.41 241.134 135.771 237.518 135.296C234.088 134.848 229.542 127.08 230.472 119.974C231.403 112.869 235.847 109.874 240.763 110.517C245.678 111.16 249.203 115.199 248.273 122.305Z" fill="#F68951"/>
<path d="M237.694 106.797C236.096 106.488 234.407 106.393 232.87 106.93C231.335 107.467 229.981 108.74 229.71 110.344C229.461 111.823 230.129 113.364 229.777 114.821C229.347 116.602 227.584 117.664 226.047 118.662C224.51 119.66 222.894 121.111 223.047 122.937C223.15 124.161 224.075 125.193 225.163 125.764C226.251 126.334 227.492 126.524 228.707 126.706C227.588 126.564 226.531 125.845 226.095 124.804C225.659 123.764 225.929 122.438 226.808 121.733C228.142 120.663 230.082 121.275 231.791 121.228C234.622 121.15 237.228 118.832 237.634 116.029C237.683 115.693 237.709 115.336 237.897 115.053C238.505 114.134 239.891 114.791 240.974 114.991C242.158 115.209 243.449 114.665 244.118 113.663C246.641 109.892 240.389 107.316 237.694 106.797Z" fill="#2B357D"/>
<path d="M242.307 114.148C242.148 115.347 242.483 116.64 243.332 117.503C243.865 118.043 244.558 118.388 245.17 118.837C245.781 119.285 246.345 119.904 246.408 120.66C246.514 121.924 245.266 122.815 244.488 123.816C243.408 125.205 243.18 127.204 243.918 128.801C244.389 129.82 245.22 130.69 245.423 131.793C245.698 133.287 244.529 134.889 243.022 135.083C244.597 135.255 246.024 134.217 247.24 133.202C248.443 132.196 249.679 131.059 250.058 129.538C250.504 127.746 249.651 125.86 249.896 124.029C250.125 122.313 251.291 120.843 251.602 119.14C251.872 117.651 251.456 116.097 250.691 114.792C249.926 113.487 248.834 112.406 247.681 111.427C244.926 109.089 242.725 111.001 242.307 114.148Z" fill="#2B357D"/>
<path d="M257.576 131.05L258.508 125.161L254.507 117.561L251.409 116.231C250.944 115.919 249.436 116.594 249.656 117.109C250.476 119.031 252.049 123.231 252.696 125.322C252.696 125.322 253.009 127.446 251.79 126.485C250.571 125.525 246.456 127.104 247.198 128.813C247.478 129.459 248.181 129.206 249.041 128.952C249.671 128.766 250.386 128.58 251.079 128.749C252.716 129.147 252.114 132.187 255.466 132.187L257.576 131.05Z" fill="#F68951"/>
<path d="M257.576 131.05L255.466 132.187C260.174 139.727 262.429 143.349 263.509 145.086L246.659 139.863C246.659 139.863 241.095 137.747 243.148 142.819C244.552 146.288 246.325 147.215 249.524 148.566C251.842 149.545 263.229 151.823 269.691 153.071C272.174 153.55 274.57 151.918 275.04 149.433C275.339 147.851 274.781 146.229 273.574 145.163L257.576 131.05Z" fill="#F1487C"/>
<path d="M263.508 145.086L255.466 132.187C260.174 139.727 262.428 143.349 263.508 145.086Z" fill="#E898D1"/>
<path d="M269.279 146.405L263.509 145.086C262.429 143.349 260.174 139.727 255.466 132.187L256.242 131.769L269.279 146.405Z" fill="#F0376B"/>
<path d="M449.929 94.5409C449.929 94.5409 450.857 98.6804 446.094 103.776C446.094 103.776 455.981 100.91 458.847 94.5409H449.929Z" fill="#F5802D"/>
<path d="M463.832 97.1053H442.866C440.44 97.1053 438.474 95.1394 438.474 92.7141V80.2022C438.474 77.7769 440.44 75.8109 442.866 75.8109H463.832C466.258 75.8109 468.225 77.7769 468.225 80.2022V92.7141C468.225 95.1394 466.258 97.1053 463.832 97.1053Z" fill="#F5802D"/>
<path d="M447.924 86.4577C447.924 87.5691 447.023 88.4693 445.913 88.4693C444.802 88.4693 443.902 87.5691 443.902 86.4577C443.902 85.3478 444.802 84.4468 445.913 84.4468C447.023 84.4468 447.924 85.3478 447.924 86.4577Z" fill="#FFFEF2"/>
<path d="M455.36 86.4577C455.36 87.5691 454.46 88.4693 453.349 88.4693C452.238 88.4693 451.338 87.5691 451.338 86.4577C451.338 85.3478 452.238 84.4468 453.349 84.4468C454.46 84.4468 455.36 85.3478 455.36 86.4577Z" fill="#FFFEF2"/>
<path d="M462.796 86.4577C462.796 87.5691 461.895 88.4693 460.784 88.4693C459.674 88.4693 458.773 87.5691 458.773 86.4577C458.773 85.3478 459.674 84.4468 460.784 84.4468C461.895 84.4468 462.796 85.3478 462.796 86.4577Z" fill="#FFFEF2"/>
<path d="M419.802 168.041C419.573 169.664 405.131 261.284 405.131 261.284L408.492 261.35C408.492 261.35 428.737 211.672 429.904 184.438C430.217 177.162 432.22 169.582 429.198 168.791C426.68 168.131 419.802 168.041 419.802 168.041Z" fill="#F9A776"/>
<path d="M393.449 270.563C390.83 272.174 388.473 273.432 388.343 274.049C388.124 275.087 392.427 275.133 397.649 274.952L405.91 270.189L405.973 269.017L405.91 270.189L405.973 270.145L405.91 270.189L405.672 274.611C406.905 274.531 407.677 274.472 407.677 274.472C407.677 274.472 411.15 268.132 408.736 261.901C408.382 261.971 408.031 262.105 407.697 262.306C403.57 265.658 399.201 271.675 393.449 270.563Z" fill="#2B357D"/>
<path d="M405.131 261.284C405.131 261.284 402.318 264.104 397.028 268.153C395.906 269.012 394.65 269.825 393.449 270.563C399.2 271.675 403.57 265.657 407.697 262.306C408.031 262.105 408.381 261.971 408.736 261.901C408.656 261.692 408.569 261.482 408.474 261.273L405.131 261.284Z" fill="#F9A776"/>
<path d="M432.125 262.104C432.125 262.104 430.706 272.65 433.37 274.87C436.035 277.09 439.671 277.042 439.671 277.042C439.671 277.042 441.167 275.463 441.315 274.229C441.463 272.996 440.677 269.573 435.827 262.104H432.125Z" fill="#2B357D"/>
<path d="M421.723 168.041C421.726 168.199 427.865 169.257 427.94 170.904C428.639 186.355 432.147 261.696 432.147 261.696L435.827 262.105C435.827 262.105 449.302 205.28 441.85 178.955C439.972 172.324 434.186 168.22 434.186 168.22L429.867 168.143L421.723 168.041Z" fill="#F9A776"/>
<path d="M432.147 261.696C432.147 261.696 431.446 272.058 435.393 272.453C439.34 272.848 439.954 271.897 439.573 270.251C439.192 268.604 435.826 262.105 435.826 262.105L432.147 261.696Z" fill="#F9A776"/>
<path d="M441.85 178.955C439.972 172.324 434.186 168.22 434.186 168.22L429.867 168.143L421.723 168.041C421.723 168.053 421.764 168.071 421.832 168.094C420.637 168.052 419.802 168.041 419.802 168.041C419.688 168.849 416.054 192.385 412.431 215.835H434.1C434.1 215.835 437.144 206.957 438.192 199.977C438.518 206.934 438.576 208.142 438.94 215.835H443.27C444.498 202.412 444.606 188.693 441.85 178.955Z" fill="#2B357D"/>
<path d="M444.096 199.25C444.096 199.169 444.096 199.092 444.096 199.01C444.085 194.214 443.819 189.626 443.207 185.466C443.829 189.696 444.094 194.367 444.096 199.25Z" fill="#A8A9DB"/>
<path d="M443.207 185.466C442.882 183.26 442.461 181.174 441.929 179.242C442.461 181.174 442.882 183.26 443.207 185.466Z" fill="#969BD6"/>
<path d="M443.269 215.835H440.918H443.269C443.787 210.172 444.106 204.457 444.095 199.01C444.095 199.092 444.095 199.169 444.096 199.25C444.097 204.625 443.78 210.256 443.269 215.835Z" fill="#C57A67"/>
<path d="M443.27 215.835H440.918C441.903 198.709 440.065 181.986 428.886 168.154L434.186 168.22C434.186 168.22 439.972 172.324 441.85 178.955C441.876 179.05 441.903 179.145 441.929 179.242C442.461 181.174 442.882 183.261 443.207 185.466C443.819 189.627 444.085 194.214 444.096 199.01C444.107 204.457 443.788 210.172 443.27 215.835Z" fill="#252F66"/>
<path d="M434.226 104.199C434.226 104.199 437.179 103.502 439.275 108.97C440.408 111.923 442.953 120.609 442.985 128.237C443.082 150.888 421.978 142.282 419.305 137.484C416.631 132.686 410.941 130.012 427.898 105.601L434.226 104.199Z" fill="#4D51AC"/>
<path d="M420.308 135.956L404.265 160.375L406.724 167.084C406.724 167.084 422.363 149.236 424.06 145.598C425.756 141.958 426.764 140.041 425.49 136.012C424.216 131.982 420.308 135.956 420.308 135.956Z" fill="#EF3060"/>
<path d="M395.697 143.856L406.771 167.074L410.206 160.807C410.206 160.807 411.084 157.824 397.495 141.834L395.697 143.856Z" fill="#EF3060"/>
<path d="M395.697 143.856L392.833 145.144C391.091 145.915 389.174 146.204 387.282 145.982L381.667 145.322L378.235 143.208C377.697 142.878 377.919 142.05 378.55 142.033C380.91 141.974 388.426 142.055 388.779 141.077C388.779 141.077 389.476 140.717 387.917 139.916C386.359 139.115 385.617 137.741 387.709 137.504C389.725 137.276 393.336 139.022 395.852 140.856C395.947 140.925 397.404 141.766 397.495 141.834L395.697 143.856Z" fill="#F9A776"/>
<path d="M435.727 131.735C433.398 131.717 431.162 130.834 426.653 131.164C424.455 131.325 420.731 132.28 419.933 134.206L415.165 142.995C414.364 144.238 413.881 147.634 414.855 148.747C416.146 150.221 417.894 151.496 418.146 152.544L419.802 168.041L434.186 168.22C434.186 168.22 446.008 139.459 435.727 131.735Z" fill="#F1487C"/>
<path d="M435.727 131.735C435.718 131.734 435.709 131.734 435.7 131.734C435.709 131.734 435.718 131.734 435.727 131.735ZM435.697 131.734C435.689 131.734 435.681 131.734 435.672 131.734C435.681 131.734 435.689 131.734 435.697 131.734ZM435.671 131.734C434.994 131.724 434.322 131.643 433.598 131.542C434.322 131.643 434.994 131.724 435.671 131.734Z" fill="#5049A7"/>
<path d="M434.186 168.22L428.273 168.147C434.256 157.43 440.562 144.252 433.94 133.659C433.438 132.822 432.77 132.028 431.967 131.314C432.55 131.388 433.088 131.47 433.598 131.542C434.322 131.643 434.994 131.724 435.671 131.734C435.672 131.734 435.673 131.734 435.673 131.734C435.681 131.734 435.689 131.734 435.697 131.734C435.699 131.734 435.7 131.734 435.701 131.734C435.71 131.734 435.719 131.734 435.727 131.735C438.845 134.077 439.93 138.353 439.928 143.176C439.926 154.257 434.186 168.22 434.186 168.22Z" fill="#F03D71"/>
<path d="M432.198 125.461C432.034 123.728 432.022 121.66 432.315 119.215L426.434 123.663C426.434 123.663 426.739 125.722 426.186 127.433C428.461 128.298 430.324 126.892 432.198 125.461Z" fill="#F68951"/>
<path d="M426.185 127.433C425.915 128.27 425.441 129.025 424.618 129.411C423.261 130.048 423.474 132.097 422.392 132.731L421.748 138.004V140.808L428.849 134.749L434.226 132.296C434.226 132.296 432.641 130.126 432.199 125.461C430.324 126.892 428.461 128.298 426.185 127.433Z" fill="#F9A776"/>
<path d="M436.623 115.723C436.623 125.698 423.394 125.973 423.394 125.973C423.394 125.973 420.186 122.308 420.186 116.799C420.186 111.29 420.186 103.378 424.043 103.378C432.244 103.378 436.623 103.422 436.623 115.723Z" fill="#F9A776"/>
<path d="M434.187 104.199C434.187 104.199 423.853 97.316 420.185 102.718C416.517 108.12 418.695 111.255 418.695 111.255L419.894 110.82C419.894 110.82 419.689 107.684 420.804 106.377C420.804 106.377 419.568 109.996 420.335 110.78C420.335 110.78 428.147 109.745 429.739 110.834C431.329 111.923 431.619 114.791 431.619 114.791L432.048 123.59C432.048 123.59 438.469 121.188 438.474 110.994C438.477 103.378 434.187 104.199 434.187 104.199Z" fill="#4D51AC"/>
<path d="M431.619 114.791C431.619 114.791 432.146 110.648 434.707 112.682C437.269 114.715 434.927 119.137 433.348 119.413C431.77 119.687 431.017 116.976 431.017 116.976" fill="#F9A776"/>
<path d="M432.852 128.237C432.852 128.237 433.702 129.739 435.885 131.468L428.843 135.277L429.586 136.926L421.748 140.808C421.748 140.808 431.15 128.79 432.852 128.237Z" fill="white"/>
<path d="M424.617 129.411C424.617 129.411 421.508 134.759 421.748 140.808C421.748 140.808 420.76 137.513 420.848 134.662L421.748 133.609L421.32 132.731C421.32 132.731 423.342 130.388 424.617 129.411Z" fill="white"/>
<path d="M433.517 134.999L417.474 159.417L419.933 166.128C419.933 166.128 435.572 148.279 437.269 144.64C438.965 141.001 439.974 139.083 438.699 135.054C437.425 131.025 433.517 134.999 433.517 134.999Z" fill="#F03767"/>
<path d="M395.08 159.141L419.933 166.128L417.474 159.417C417.474 159.417 415.741 156.894 394.759 156.455L395.08 159.141Z" fill="#F03767"/>
<path d="M281.283 96.8587C281.283 96.8587 280.355 100.998 285.119 106.094C285.119 106.094 275.231 103.228 272.365 96.8587H281.283Z" fill="#4D51AC"/>
<path d="M267.38 99.4232H288.346C290.772 99.4232 292.739 97.4572 292.739 95.0319V82.52C292.739 80.0947 290.772 78.1287 288.346 78.1287H267.38C264.954 78.1287 262.988 80.0947 262.988 82.52V95.0319C262.988 97.4572 264.954 99.4232 267.38 99.4232Z" fill="#4D51AC"/>
<path d="M283.287 88.7756C283.287 89.887 284.188 90.7872 285.299 90.7872C286.41 90.7872 287.31 89.887 287.31 88.7756C287.31 87.6656 286.41 86.7647 285.299 86.7647C284.188 86.7647 283.287 87.6656 283.287 88.7756Z" fill="#FFFEF2"/>
<path d="M275.852 88.7756C275.852 89.887 276.752 90.7872 277.863 90.7872C278.974 90.7872 279.874 89.887 279.874 88.7756C279.874 87.6656 278.974 86.7647 277.863 86.7647C276.752 86.7647 275.852 87.6656 275.852 88.7756Z" fill="#FFFEF2"/>
<path d="M268.416 88.7756C268.416 89.887 269.316 90.7872 270.428 90.7872C271.538 90.7872 272.438 89.887 272.438 88.7756C272.438 87.6656 271.538 86.7647 270.428 86.7647C269.316 86.7647 268.416 87.6656 268.416 88.7756Z" fill="#FFFEF2"/>
<path d="M311.817 106.296C311.817 110.818 308.151 114.484 303.629 114.484C299.106 114.484 295.439 110.818 295.439 106.296C295.439 101.773 299.106 98.1071 303.629 98.1071C308.151 98.1071 311.817 101.773 311.817 106.296Z" fill="#F1487C"/>
<path d="M307.662 105.453C307.662 105.281 307.643 105.113 307.609 104.951C307.378 103.885 306.431 103.086 305.296 103.086C304.645 103.086 304.056 103.601 303.628 104.026C303.2 103.601 302.611 103.086 301.96 103.086C300.825 103.086 299.877 103.885 299.648 104.951C299.612 105.113 299.594 105.281 299.594 105.453L299.597 105.568L299.594 105.699C299.594 108.244 303.628 110.307 303.628 110.307C303.628 110.307 307.662 108.244 307.662 105.699L307.66 105.568L307.662 105.453Z" fill="white"/>
<path d="M302.022 113.252L296.078 116.965L298.465 109.539L302.022 113.252Z" fill="#F1487C"/>
<path d="M381.071 154.453C367.064 150.12 366.346 151.751 366.346 151.751L360.277 157.977L381.367 161.291C381.391 159.673 381.165 156.145 381.071 154.453Z" fill="#212A58"/>
<path d="M382.654 155.771C382.106 155.599 381.583 155.436 381.071 155.278C381.165 156.969 381.389 158.648 381.365 160.266L386.263 160.797L382.654 155.771Z" fill="#F68951"/>
<path d="M387.589 151.789C387.5 151.787 387.408 151.784 387.322 151.789C386.446 151.84 386.056 152.117 386.002 152.485C386.541 152.131 387.063 151.882 387.528 151.797L387.589 151.789Z" fill="#F9A776"/>
<path d="M388.552 151.902C388.373 151.764 388.058 151.713 387.59 151.789C387.89 151.794 388.212 151.832 388.552 151.902Z" fill="#F68951"/>
<path d="M387.824 156.168C387.824 156.168 388.264 155.73 388.191 155.183L388.179 155.173C388.179 155.173 387.66 154.879 387.659 154.383C387.582 154.325 387.496 154.266 387.398 154.209C386.516 153.693 385.928 152.999 386.002 152.485C384.666 153.363 383.222 154.905 382.266 156.312L382.229 157.139C384.531 157.175 387.453 157.043 387.824 156.168Z" fill="#F68951"/>
<path d="M387.399 154.209C387.497 154.266 387.583 154.324 387.659 154.383C387.659 154.166 387.756 153.911 388.04 153.626C388.682 152.979 388.963 152.219 388.551 151.902C388.211 151.831 387.89 151.794 387.589 151.789L387.528 151.797C387.063 151.882 386.541 152.131 386.002 152.485C385.928 152.999 386.517 153.693 387.399 154.209Z" fill="#F68951"/>
<path d="M395.034 156.461C393.049 154.781 390.601 152.331 388.552 151.902C388.963 152.219 388.683 152.979 388.04 153.626C387.756 153.912 387.659 154.166 387.659 154.383C388.014 154.651 388.158 154.929 388.192 155.184C388.265 155.73 387.825 156.168 387.825 156.168C387.453 157.043 384.532 157.175 382.229 157.139C382.013 157.136 381.801 157.131 381.6 157.126C380.968 157.108 380.702 157.922 381.221 158.282L382.152 158.927L384.532 160.579L388.205 161.573L389.409 161.9L395.105 159.113L395.034 156.461Z" fill="#F9A776"/>
<path d="M350.072 145.729L360.277 157.978L367.044 151.45L357.228 139.604C354.808 140.957 351.999 143.698 350.072 145.729Z" fill="#212A58"/>
<path d="M359.065 142.052L350.573 130.792C347.436 127.367 343.317 127.251 341.403 130.729C340.469 132.427 340.629 134.988 341.767 136.555L353.314 149.469C354.959 146.501 356.646 143.405 359.065 142.052Z" fill="#212A58"/>
<path d="M353.32 263.049L355.894 272.884L363.455 270.55L360.291 256.62L353.32 263.049Z" fill="#F9A776"/>
<path d="M363.319 269.832L378.728 275.08C379.633 275.388 380.228 276.139 380.228 276.974C380.228 278.101 379.163 279.013 377.85 279.013H356.248C356.248 279.013 354.126 274.899 356.059 272.722L363.319 269.832Z" fill="#4D51AC"/>
<path d="M363.182 265.914L350.752 178.103H337.271C331.182 186.823 353.365 266.778 353.365 266.778L363.182 265.914Z" fill="#F9AB41"/>
<path d="M352.381 263.165C352.362 263.165 352.341 263.163 352.322 263.162C351.155 258.973 349.851 253.862 348.531 248.458C350.127 254.733 351.509 259.93 352.381 263.165Z" fill="#F7DEBB"/>
<path d="M353.365 266.778C353.033 265.674 352.684 264.462 352.322 263.162C352.341 263.163 352.362 263.165 352.381 263.165C353.002 265.468 353.365 266.778 353.365 266.778L354.275 266.698L353.365 266.778Z" fill="#D8CDBF"/>
<path d="M354.275 266.698L357.202 266.44V266.441L354.275 266.698Z" fill="#F7985E"/>
<path d="M353.365 266.778C353.365 266.778 353.002 265.468 352.381 263.165C351.509 259.93 350.127 254.733 348.531 248.458C344.003 229.915 339.289 207.931 339.289 207.931L340.702 200.344L342.387 191.307L357.202 266.441L354.275 266.698L353.365 266.778Z" fill="#F89A39"/>
<path d="M304.184 254.389L297.757 262.264L304.101 266.995L313.488 256.227L304.184 254.389Z" fill="#F9A776"/>
<path d="M300.086 258.405L308.938 262.736L333.035 234.815L334.633 232.919C330.887 230.629 325.094 229.99 321.694 227.201C310.118 243.414 300.086 258.405 300.086 258.405Z" fill="#F9AB41"/>
<path d="M306.621 264.715C306.621 264.715 308.136 270.955 316.96 273.493C321.038 274.666 317.236 278.227 317.236 278.227H305.622L295.531 269.143C295.531 269.143 295.995 260.108 299.778 260.058C299.778 260.058 303.129 263.168 306.621 264.715Z" fill="#4D51AC"/>
<path d="M328.316 178.103C325.119 182.682 322.572 206.904 320.876 228.877L320.874 228.899C325.227 229.53 330.242 232.893 334.633 232.919L344.246 181.325L328.316 178.103Z" fill="#F9AB41"/>
<path d="M308.938 262.736L308.149 262.351L308.938 262.736Z" fill="#D8CDBF"/>
<path d="M334.633 232.919L338.591 211.671L338.592 211.67L334.633 232.919Z" fill="#F7DEBB"/>
<path d="M308.149 262.35L305.622 261.114L308.149 262.35Z" fill="#F7985E"/>
<path d="M308.938 262.736L308.149 262.351L305.622 261.114L331.004 232.299C332.242 232.667 333.46 232.912 334.633 232.919L308.938 262.736Z" fill="#F89A39"/>
<path d="M334.633 232.919C333.459 232.912 332.242 232.667 331.004 232.299L331.457 231.786L338.591 211.671L334.633 232.919Z" fill="#F89A39"/>
<path d="M346.285 127.997C339.319 125.97 337.745 124.454 333.249 125.57C331.229 126.071 325.171 128.742 323.652 129.736C321.656 131.043 320.231 133.58 320.238 135.965C320.282 150.733 330.464 163.774 330.04 169.653L328.316 178.103L351.413 182.775C351.413 182.774 355.467 132.177 346.285 127.997Z" fill="#2B357D"/>
<path d="M334.587 179.372L328.316 178.103L334.587 179.371C334.587 179.372 334.587 179.372 334.587 179.372Z" fill="#969BD6"/>
<path d="M334.588 179.371L328.316 178.103L330.04 169.653C330.049 169.533 330.054 169.409 330.053 169.282C330.051 163.238 320.282 150.43 320.238 135.965C320.237 135.955 320.237 135.946 320.237 135.937C320.242 133.56 321.664 131.038 323.652 129.736C323.737 129.68 323.841 129.618 323.953 129.552C321.387 141.278 330.49 151.327 334.905 160.789C337.571 167.12 336.632 173.287 334.588 179.372" fill="#252F66"/>
<path d="M301.896 142.909C301.122 142.052 300.286 141.137 299.368 140.142L292.901 138.952L297.797 146.973C299.777 146.731 300.731 144.538 301.896 142.909Z" fill="#F68951"/>
<path d="M291.21 141.234L284.334 137.253C283.801 136.944 283.536 136.321 283.683 135.723L284.204 133.6C284.409 132.77 285.309 132.321 286.095 132.658L292.234 135.284C292.234 135.284 294.741 134.911 296.2 135.284C296.2 135.284 296.886 133.481 297.419 132.016C297.949 130.55 298.887 130.709 299.386 132.574C299.885 134.44 300.324 138.556 298.898 140.972L295.811 143.712L294.795 141.737L291.21 141.234Z" fill="#F68951"/>
<path d="M321.837 147.975L307.538 162.691L304.726 154.576L313.893 142.309C316.513 143.484 319.662 146.055 321.837 147.975Z" fill="#F9A776"/>
<path d="M308.076 150.094L319.954 132.608C322.876 128.788 327.115 128.291 329.41 131.705C330.528 133.37 329.871 139.557 328.841 141.277L307.538 162.691C305.57 159.779 310.696 151.269 308.076 150.094Z" fill="#212A58"/>
<path d="M302.564 142.05C301.398 143.679 298.572 146.417 296.592 146.658L307.392 162.648L310.626 153.991C310.626 153.991 311.7 152.164 302.564 142.05Z" fill="#212A58"/>
<path d="M339.51 124.155C336.156 124.541 332.841 123.81 330.653 121.21C330.491 125.179 329.994 126.682 329.994 126.682L341.365 127.262C340.302 126.639 339.76 125.461 339.51 124.155Z" fill="#F68951"/>
<path d="M340.395 126.374C340.395 126.374 343.307 128.33 340.966 128.908C338.624 129.487 332.312 130.848 329.994 126.682L334.835 122.661L338.693 125.09L340.395 126.374Z" fill="#F68951"/>
<path d="M339.51 124.155C338.99 121.441 339.738 118.175 339.738 118.175L330.609 114.647C330.731 117.348 330.723 119.503 330.653 121.21C332.841 123.81 336.156 124.541 339.51 124.155Z" fill="#F5763C"/>
<path d="M327.368 111.816C327.368 121.95 340.627 120.955 340.627 120.955C340.627 120.955 344.067 118.506 344.067 112.909C344.067 107.312 344.067 99.2751 340.148 99.2751C331.817 99.2751 327.368 99.32 327.368 111.816Z" fill="#F68951"/>
<path d="M327.096 110.042C326.859 109.282 328.216 111.259 328.962 110.977C329.707 110.695 330.163 109.905 330.275 109.116C330.389 108.328 330.218 107.529 330.05 106.75C330.269 107.076 330.761 107.119 331.108 106.934C331.454 106.749 331.678 106.398 331.848 106.044C332.384 104.932 332.534 103.638 332.265 102.432C333.191 103.416 334.637 103.881 335.963 103.621C337.29 103.362 338.453 102.385 338.939 101.124C339.896 102.297 341.458 102.85 342.972 102.891C343.969 102.919 345.003 102.732 345.817 102.157C346.63 101.58 347.173 100.561 346.99 99.5814C346.894 99.0661 346.614 98.6032 346.286 98.1954C344.778 96.3192 342.49 94.6889 340.182 95.3705C340.27 93.9845 339.455 93.3103 338.44 92.3608C337.427 91.4113 335.773 91.1117 334.602 91.8588C333.348 92.6589 332.959 93.024 332.157 94.276C331.27 93.4155 326.717 92.7457 325.587 93.2485C324.456 93.7512 323.618 94.9774 323.791 96.2022C323.981 97.5609 324.207 97.9672 324.619 99.2752C323.052 98.9638 322.325 100.034 321.369 101.314C320.412 102.593 320.504 104.624 321.737 105.641C322.259 106.073 322.917 106.298 323.534 106.579C323.704 106.656 323.889 106.757 323.943 106.936C324.003 107.135 323.874 107.337 323.757 107.509C322.664 109.118 322.043 111.045 321.991 112.991C321.983 113.32 321.993 113.662 322.135 113.959C322.408 114.533 323.097 114.787 323.732 114.812C324.366 114.838 324.997 114.691 325.632 114.715C325.838 114.722 326.052 114.752 326.219 114.873C326.556 115.117 326.558 115.609 326.528 116.025C326.463 116.925 326.396 117.826 326.33 118.726C326.293 119.229 326.26 119.754 326.462 120.216C326.783 120.952 327.609 121.325 328.391 121.515C329.46 121.777 329.954 122.33 330.643 121.473C330.643 121.473 331.287 120.501 330.704 118.618C330.067 116.559 328.155 113.44 327.096 110.042Z" fill="#EF3060"/>
<path d="M329.871 111.499C329.871 111.499 329.341 106.561 327.484 107.709C325.627 108.856 325.744 114.815 330.192 114.647C334.64 114.481 333.895 113.389 333.895 113.389L329.871 111.499Z" fill="#F68951"/>
<path d="M288.151 122.324L286.582 143.433L296.312 144.379L297.501 124.042L288.151 122.324Z" fill="#2B357D"/>
<path d="M289.469 123.735L288.219 142.309L295.382 142.978L296.529 124.977L289.469 123.735Z" fill="#9FBFE8"/>
<path d="M288.893 132.293L296.244 124.943L296.529 124.977L296.316 128.325L288.689 135.953L288.893 132.293Z" fill="#C1DCF4"/>
<path d="M288.548 137.284L296.235 129.597L296.185 129.968L295.971 133.316L288.344 140.943L288.548 137.284Z" fill="#C1DCF4"/>
</svg>
