<svg width="24" height="24" viewBox="0 0 24 24" fill="none" xmlns="http://www.w3.org/2000/svg">
<path d="M21.6 2H2.4C1.0764 2 0 3.12125 0 4.5V19.5C0 20.8787 1.0764 22 2.4 22H21.6C22.9236 22 24 20.8787 24 19.5V4.5C24 3.12125 22.9236 2 21.6 2ZM8.058 7C9.4392 7 10.458 8.06125 10.458 9.5C10.458 10.9388 9.4392 12 8.058 12C6.6768 12 5.658 10.9388 5.658 9.5C5.658 8.06125 6.6756 7 8.058 7ZM12.516 17H3.6V16.4187C3.6 14.7025 5.6112 12.9375 8.058 12.9375C10.5048 12.9375 12.516 14.7025 12.516 16.4187V17ZM20.4 15.75H15.6V13.25H20.4V15.75ZM20.4 10.75H14.4V8.25H20.4V10.75Z" fill="#78788C"/>
</svg>
