<svg width="20" height="20" viewBox="0 0 20 20" fill="none" xmlns="http://www.w3.org/2000/svg">
<path d="M17.3295 8.57143H11.3636C10.8211 8.57143 10.3009 8.34566 9.91728 7.9438C9.53368 7.54194 9.31818 6.99689 9.31818 6.42857V0.178571C9.31818 0.131211 9.30022 0.085791 9.26826 0.0523024C9.23629 0.0188138 9.19293 0 9.14773 0H5.22727C4.50396 0 3.81026 0.30102 3.2988 0.836838C2.78734 1.37266 2.5 2.09938 2.5 2.85714V17.1429C2.5 17.9006 2.78734 18.6273 3.2988 19.1632C3.81026 19.699 4.50396 20 5.22727 20H14.7727C15.496 20 16.1897 19.699 16.7012 19.1632C17.2127 18.6273 17.5 17.9006 17.5 17.1429V8.75C17.5 8.70264 17.482 8.65722 17.4501 8.62373C17.4181 8.59024 17.3748 8.57143 17.3295 8.57143ZM13.4091 15.7143H6.59091C6.41008 15.7143 6.23666 15.639 6.10879 15.5051C5.98093 15.3711 5.90909 15.1894 5.90909 15C5.90909 14.8106 5.98093 14.6289 6.10879 14.4949C6.23666 14.361 6.41008 14.2857 6.59091 14.2857H13.4091C13.5899 14.2857 13.7633 14.361 13.8912 14.4949C14.0191 14.6289 14.0909 14.8106 14.0909 15C14.0909 15.1894 14.0191 15.3711 13.8912 15.5051C13.7633 15.639 13.5899 15.7143 13.4091 15.7143ZM13.4091 12.1429H6.59091C6.41008 12.1429 6.23666 12.0676 6.10879 11.9336C5.98093 11.7997 5.90909 11.618 5.90909 11.4286C5.90909 11.2391 5.98093 11.0574 6.10879 10.9235C6.23666 10.7895 6.41008 10.7143 6.59091 10.7143H13.4091C13.5899 10.7143 13.7633 10.7895 13.8912 10.9235C14.0191 11.0574 14.0909 11.2391 14.0909 11.4286C14.0909 11.618 14.0191 11.7997 13.8912 11.9336C13.7633 12.0676 13.5899 12.1429 13.4091 12.1429Z" fill="#78788C"/>
<path d="M16.3758 7.36686L10.7582 1.74928C10.7473 1.73842 10.7334 1.73103 10.7183 1.72805C10.7032 1.72506 10.6875 1.7266 10.6733 1.73249C10.659 1.73838 10.6469 1.74834 10.6383 1.76113C10.6297 1.77391 10.6251 1.78896 10.625 1.80436V6.87506C10.625 7.04082 10.6908 7.19979 10.8081 7.317C10.9253 7.43421 11.0842 7.50006 11.25 7.50006H16.3207C16.3361 7.5 16.3511 7.49538 16.3639 7.48679C16.3767 7.4782 16.3867 7.46603 16.3926 7.45179C16.3985 7.43755 16.4 7.4219 16.397 7.40679C16.394 7.39167 16.3866 7.37778 16.3758 7.36686Z" fill="#78788C"/>
</svg>
