<svg width="20" height="20" viewBox="0 0 20 20" fill="none" xmlns="http://www.w3.org/2000/svg">
<path d="M9.38889 2.83333C9.6 3.04444 9.94444 3.06667 10.1889 2.87778C11.4444 1.87778 12.9444 1.33333 14.4444 1.33333C15.9444 1.33333 17.4444 1.87778 18.7111 2.87778C18.9444 3.06667 19.2889 3.04444 19.5111 2.83333L19.5556 2.77778C19.614 2.71841 19.6597 2.64773 19.6898 2.57006C19.72 2.49239 19.7339 2.40939 19.7308 2.32614C19.7276 2.24289 19.7075 2.16116 19.6717 2.08597C19.6358 2.01078 19.5849 1.94371 19.5222 1.88889C18.0444 0.633333 16.2444 0 14.4444 0C12.6444 0 10.8444 0.633333 9.36667 1.88889C9.1 2.12222 9.07778 2.52222 9.33333 2.77778L9.38889 2.83333ZM11.2778 3.67778C11 3.9 10.9889 4.32222 11.2333 4.56667L11.2778 4.61111C11.5 4.83333 11.8333 4.83333 12.0778 4.65556C12.7778 4.12222 13.6111 3.88889 14.4444 3.88889C15.2778 3.88889 16.1111 4.12222 16.8111 4.64444C17.0556 4.83333 17.4 4.82222 17.6111 4.6L17.6556 4.55556C17.9111 4.3 17.8889 3.88889 17.6111 3.66667C16.6889 2.95556 15.5667 2.55556 14.4444 2.55556C13.3222 2.55556 12.2 2.95556 11.2778 3.67778ZM17.7778 11.1111H15.5556V7.77778C15.5556 7.16667 15.0556 6.66667 14.4444 6.66667C13.8333 6.66667 13.3333 7.16667 13.3333 7.77778V11.1111H2.22222C1 11.1111 0 12.1111 0 13.3333V17.7778C0 19 1 20 2.22222 20H17.7778C19 20 20 19 20 17.7778V13.3333C20 12.1111 19 11.1111 17.7778 11.1111ZM5.55556 16.6667H3.33333V14.4444H5.55556V16.6667ZM9.44444 16.6667H7.22222V14.4444H9.44444V16.6667ZM13.3333 16.6667H11.1111V14.4444H13.3333V16.6667Z" fill="#78788C"/>
</svg>
