<svg width="40" height="40" viewBox="0 0 40 40" fill="none" xmlns="http://www.w3.org/2000/svg">
<path d="M19.995 13.3305C16.3225 13.3305 13.3255 16.3275 13.3255 20C13.3255 23.6725 16.3225 26.6695 19.995 26.6695C23.6675 26.6695 26.6645 23.6725 26.6645 20C26.6645 16.3275 23.6675 13.3305 19.995 13.3305ZM39.9985 20C39.9985 17.2381 40.0235 14.5013 39.8684 11.7444C39.7133 8.54226 38.9828 5.70034 36.6412 3.35876C34.2947 1.01217 31.4577 0.286681 28.2556 0.131576C25.4937 -0.0235287 22.7569 0.00148823 20 0.00148823C17.2381 0.00148823 14.5013 -0.0235287 11.7444 0.131576C8.54226 0.286681 5.70034 1.01717 3.35876 3.35876C1.01217 5.70534 0.286681 8.54226 0.131576 11.7444C-0.0235287 14.5063 0.00148823 17.2431 0.00148823 20C0.00148823 22.7569 -0.0235287 25.4987 0.131576 28.2556C0.286681 31.4577 1.01717 34.2997 3.35876 36.6412C5.70534 38.9878 8.54226 39.7133 11.7444 39.8684C14.5063 40.0235 17.2431 39.9985 20 39.9985C22.7619 39.9985 25.4987 40.0235 28.2556 39.8684C31.4577 39.7133 34.2997 38.9828 36.6412 36.6412C38.9878 34.2947 39.7133 31.4577 39.8684 28.2556C40.0285 25.4987 39.9985 22.7619 39.9985 20ZM19.995 30.2619C14.3162 30.2619 9.73306 25.6788 9.73306 20C9.73306 14.3212 14.3162 9.73807 19.995 9.73807C25.6738 9.73807 30.2569 14.3212 30.2569 20C30.2569 25.6788 25.6738 30.2619 19.995 30.2619ZM30.6772 11.7144C29.3513 11.7144 28.2806 10.6437 28.2806 9.31778C28.2806 7.99189 29.3513 6.92116 30.6772 6.92116C32.0031 6.92116 33.0738 7.99189 33.0738 9.31778C33.0742 9.63262 33.0125 9.94445 32.8922 10.2354C32.7719 10.5263 32.5954 10.7907 32.3728 11.0133C32.1501 11.236 31.8858 11.4125 31.5948 11.5328C31.3039 11.6531 30.9921 11.7148 30.6772 11.7144Z" fill="#F03D44"/>
</svg>
