<svg width="24" height="24" viewBox="0 0 24 24" fill="none" xmlns="http://www.w3.org/2000/svg">
<path d="M12 0C7.57714 0 4 3.756 4 8.4C4 14.7 12 24 12 24C12 24 20 14.7 20 8.4C20 3.756 16.4229 0 12 0ZM12 11.4C11.2422 11.4 10.5155 11.0839 9.9797 10.5213C9.44388 9.95871 9.14286 9.19565 9.14286 8.4C9.14286 7.60435 9.44388 6.84129 9.9797 6.27868C10.5155 5.71607 11.2422 5.4 12 5.4C12.7578 5.4 13.4845 5.71607 14.0203 6.27868C14.5561 6.84129 14.8571 7.60435 14.8571 8.4C14.8571 9.19565 14.5561 9.95871 14.0203 10.5213C13.4845 11.0839 12.7578 11.4 12 11.4Z" fill="#78788C"/>
</svg>
