<svg width="40" height="40" viewBox="0 0 40 40" fill="none" xmlns="http://www.w3.org/2000/svg">
<g clip-path="url(#clip0)">
<path d="M37.0459 0H2.95547C1.32308 0 0 1.28272 0 2.86591V37.1329C0 38.7162 1.32354 40 2.95547 40H37.0459C38.6779 40 39.9995 38.7153 39.9995 37.1329V2.86591C39.9995 1.28318 38.6779 0 37.0459 0ZM12.1267 33.4827H6.08307V15.4232H12.1267V33.4827ZM9.1055 12.956H9.06486C7.03816 12.956 5.72438 11.5699 5.72438 9.8347C5.72438 8.06448 7.07676 6.71602 9.14363 6.71602C11.2107 6.71602 12.4822 8.06411 12.5223 9.8347C12.5223 11.5703 11.2112 12.956 9.1055 12.956ZM33.9123 33.4827H27.8706V23.8203C27.8706 21.3924 26.9952 19.7357 24.8103 19.7357C23.1389 19.7357 22.1467 20.8533 21.711 21.9324C21.5495 22.3178 21.5095 22.8568 21.5095 23.3951V33.4823H15.469C15.469 33.4823 15.548 17.1167 15.469 15.4229H21.5105V17.9832C22.3125 16.753 23.7457 14.998 26.954 14.998C30.9306 14.998 33.9123 17.5777 33.9123 23.1273V33.4827ZM21.4714 18.0406C21.4817 18.0237 21.4961 18.0033 21.5105 17.9835V18.0406H21.4714Z" fill="#F03D44"/>
</g>
<defs>
<clipPath id="clip0">
<rect width="39.9999" height="40" fill="white"/>
</clipPath>
</defs>
</svg>
