<svg width="24" height="24" viewBox="0 0 24 24" fill="none" xmlns="http://www.w3.org/2000/svg">
<path d="M10.1467 13.76C11.5383 15.1718 13.2222 16.2617 15.08 16.9533L17.5934 14.9533C17.6679 14.902 17.7562 14.8745 17.8467 14.8745C17.9372 14.8745 18.0255 14.902 18.1 14.9533L22.7667 17.96C22.9439 18.0665 23.0938 18.2128 23.2048 18.3872C23.3157 18.5616 23.3846 18.7595 23.4059 18.9651C23.4272 19.1707 23.4005 19.3785 23.3277 19.572C23.255 19.7654 23.1382 19.9394 22.9867 20.08L20.8 22.24C20.4869 22.5494 20.102 22.7765 19.6797 22.901C19.2575 23.0254 18.8109 23.0434 18.38 22.9533C14.0815 22.0655 10.1195 19.9863 6.94669 16.9533C3.84435 13.8902 1.69754 9.99257 0.766694 5.73334C0.674738 5.30909 0.69393 4.86829 0.822411 4.45365C0.950892 4.03901 1.1843 3.66459 1.50003 3.36667L3.76669 1.18C3.90696 1.03586 4.07802 0.925318 4.26706 0.856653C4.4561 0.787989 4.65822 0.76298 4.8583 0.783501C5.05838 0.804022 5.25122 0.869539 5.42238 0.975148C5.59355 1.08076 5.73861 1.22372 5.84669 1.39333L8.95336 6C9.00694 6.07234 9.03587 6.15998 9.03587 6.25C9.03587 6.34002 9.00694 6.42766 8.95336 6.5L6.90669 8.96C7.61708 10.7806 8.72385 12.4203 10.1467 13.76Z" fill="#78788C"/>
</svg>
