<svg width="201" height="307" viewBox="0 0 201 307" fill="none" xmlns="http://www.w3.org/2000/svg">
<path d="M45.5648 257.523H42.3721V180.099H45.5648V257.523Z" fill="#CDCCCA"/>
<path d="M31.1986 265.504H28.0059V188.082H31.1986V265.504Z" fill="#CDCCCA"/>
<path d="M60.7309 271.091H57.5381V193.669H60.7309V271.091Z" fill="#CDCCCA"/>
<path d="M64.8608 243.156H15.8936C18.0797 247.153 21.2255 250.547 25.0095 253.053V306.21H55.7453V253.053C59.5289 250.547 62.6746 247.153 64.8608 243.156Z" fill="#F1487C"/>
<path d="M79.4875 253.838H20.0239V253.225H79.4875V253.838Z" fill="#F9B3C0"/>
<path d="M188.437 271.091L188.935 201.651C188.935 201.651 176.841 209.04 179.087 219.045C180.166 223.844 181.941 227.058 178.61 231.054C175.28 235.05 173.725 237.646 174.059 242.308C174.391 246.97 179.753 248.507 179.087 253.835C178.422 259.164 175.007 263.113 175.613 266.355C176.997 273.751 183.272 276.678 183.272 276.678L188.437 271.091Z" fill="#4954AE"/>
<path d="M200.675 216.856H184.179V216.243H200.675V216.856Z" fill="#93A5DB"/>
<path d="M198.015 240.269H181.519V239.656H198.015V240.269Z" fill="#93A5DB"/>
<path d="M199.078 265.81H182.583V265.197H199.078V265.81Z" fill="#93A5DB"/>
<path d="M59.4003 151.633C53.8132 139.66 36.0847 137.963 28.2719 152.962C21.6206 165.734 5.82246 161.243 1.40054 173.183C-6.5816 194.733 21.6338 202.995 33.5932 191.807C41.8406 184.091 52.3426 188.682 61.5289 196.064C76.4277 208.036 99.5744 182.495 84.9416 170.523C73.5843 161.231 66.2844 166.384 59.4003 151.633Z" fill="#4954AE"/>
<path d="M142.894 270.556L143.439 194.467C143.439 194.467 130.187 202.565 132.649 213.527C133.83 218.785 135.776 222.307 132.126 226.687C128.478 231.065 126.773 233.908 127.138 239.017C127.503 244.125 133.379 245.81 132.649 251.647C131.919 257.486 128.179 261.816 128.843 265.366C130.358 273.472 137.236 276.678 137.236 276.678L142.894 270.556Z" fill="#4954AE"/>
<path d="M156.305 211.1H138.229V210.486H156.305V211.1Z" fill="#93A5DB"/>
<path d="M154.556 264.741H136.48V264.128H154.556V264.741Z" fill="#93A5DB"/>
<path d="M168.478 272.451V181.431C168.478 181.431 153.125 190.811 155.978 203.514C157.346 209.603 159.6 213.686 155.372 218.759C151.145 223.832 149.17 227.127 149.593 233.046C150.015 238.964 156.823 240.914 155.978 247.678C155.133 254.442 148.608 260.613 151.567 263.572C154.527 266.531 161.292 276.678 161.292 276.678L168.478 272.451Z" fill="#4954AE"/>
<path d="M156.168 270.32H189.235L182.937 306.536H162.467L156.168 270.32Z" fill="#2B3997"/>
<path d="M109.724 208.837C109.724 193.65 144.496 199.492 155.289 156.263C164.007 121.345 154.12 117.708 154.12 117.708H112.951H92.1991H51.0296C51.0296 117.708 40.4713 121.518 49.8613 156.263C61.5448 199.492 95.4263 193.65 95.4263 208.837C95.4263 228.7 62.7132 218.184 49.8613 261.413C39.6052 295.911 51.0296 299.967 51.0296 299.967H92.1991H112.951H154.12C154.12 299.967 164.005 296.332 155.289 261.413C145.664 222.858 109.724 228.7 109.724 208.837Z" fill="#F7B947"/>
<path d="M157.712 137.47H46.7578C40.7008 137.47 35.791 133.307 35.791 128.171V120.514C35.791 115.379 40.7008 111.216 46.7578 111.216H157.712C163.769 111.216 168.679 115.379 168.679 120.514V128.171C168.679 133.307 163.769 137.47 157.712 137.47Z" fill="#F2A71D"/>
<path d="M131.993 92.5232H87.8325V103.121C87.8325 108.857 91.4347 111.439 97.1718 111.439H130.945C136.682 111.439 142.38 108.857 142.38 103.121V102.911C142.38 97.1742 137.73 92.5232 131.993 92.5232Z" fill="#4954AE"/>
<path d="M141.918 101.52L147.18 161.243H139.182C139.182 161.243 127.975 125.389 126.695 112.592C125.416 99.7944 133.103 98.4715 133.103 98.4715L141.918 101.52Z" fill="#4954AE"/>
<path d="M116.467 100.711L121.906 161.243H113.907C113.907 161.243 102.142 122.39 100.863 109.593C99.583 96.7954 107.829 98.4715 107.829 98.4715L116.467 100.711Z" fill="#4954AE"/>
<path d="M147.02 161.243H139.182V167.256H155.079C156.128 167.256 156.489 164.899 155.571 164.392L147.02 161.243Z" fill="#ECA76C"/>
<path d="M121.905 161.243H114.067V167.256H129.964C131.014 167.256 131.375 164.899 130.456 164.392L121.905 161.243Z" fill="#ECA76C"/>
<path d="M87.8446 92.9311H120.797L124.911 44.1106C125.28 39.7373 121.829 35.9838 117.44 35.9838H91.2017C86.8123 35.9838 83.3619 39.7373 83.7307 44.1106L87.8446 92.9311Z" fill="#2B3997"/>
<path d="M102.241 39.0228H107.36C108.95 39.0228 110.239 37.5699 110.239 35.7782V29.4703C110.239 27.6786 108.95 26.2257 107.36 26.2257H102.241C100.651 26.2257 99.3618 27.6786 99.3618 29.4703V35.7782C99.3618 37.5699 100.651 39.0228 102.241 39.0228Z" fill="#E09B60"/>
<path d="M117.081 26.2161C115.025 33.1741 109.207 32.1081 102.25 30.0531C95.2922 27.9965 91.3187 20.6901 93.3743 13.732C95.4308 6.77394 102.738 2.80042 109.695 4.85702C116.653 6.91361 119.137 19.2596 117.081 26.2161Z" fill="#ECA76C"/>
<path d="M124.156 40.463L139.799 67.3561L127.632 72.5192L117.944 56.6027L124.156 40.463Z" fill="#2B3997"/>
<path d="M83.8776 37.2296C68.5454 50.5613 65.0497 68.2166 65.0497 68.2166C64.0965 70.2571 64.8302 73.5098 66.9695 74.2162L96.8404 89.1261L100.999 82.0862L80.0866 66.1632L95.4513 49.6012L94.6523 36.0319C94.6523 36.0319 86.1723 35.2324 83.8776 37.2296Z" fill="#2B3997"/>
<path d="M101.124 84.8475L83.5898 67.7718L84.0175 67.3319L101.552 84.4076L101.124 84.8475Z" fill="#93A5DB"/>
<path d="M98.4273 90.7813L78.3604 80.2286L78.6456 79.686L98.7126 90.2387L98.4273 90.7813Z" fill="#93A5DB"/>
<path d="M95.8159 93.2746H147.253V88.9158H95.8159V93.2746Z" fill="#CDCCCA"/>
<path d="M96.293 89.041H109.411L110.37 83.2822H100.468C98.6127 83.2822 97.0292 84.6228 96.7244 86.453L96.293 89.041Z" fill="#ECA76C"/>
<path d="M105.915 89.0972H147.217L152.884 63.5238H111.582L105.915 89.0972Z" fill="#CDCCCA"/>
<path d="M127.49 76.9985C127.49 78.4996 128.707 79.7181 130.21 79.7181C131.711 79.7181 132.929 78.4996 132.929 76.9985C132.929 75.4957 131.711 74.2788 130.21 74.2788C128.707 74.2788 127.49 75.4957 127.49 76.9985Z" fill="#93A5DB"/>
<path d="M54.0791 282.265C52.749 278.54 57.9373 259.584 59.5333 256.126C61.13 252.666 99.0428 229.586 101.969 229.853C104.896 230.119 141.012 249.141 145.535 257.123C150.059 265.105 150.923 282.265 150.923 282.265H54.0791Z" fill="#EF434A"/>
<path d="M157.712 307H46.7578C40.7008 307 35.791 302.837 35.791 297.703V290.045C35.791 284.909 40.7008 280.746 46.7578 280.746H157.712C163.769 280.746 168.679 284.909 168.679 290.045V297.703C168.679 302.837 163.769 307 157.712 307Z" fill="#F2A71D"/>
<path d="M102.634 198.058C100.838 198.058 87.0701 190.477 79.2879 184.889C71.5058 179.302 73.3013 176.908 76.2945 175.909C79.2879 174.912 132.366 175.312 134.561 177.507C136.755 179.701 124.384 187.085 118.997 190.875C115.053 193.651 106.026 198.058 102.634 198.058Z" fill="#EF434A"/>
<path d="M96.7484 27.1521C97.4978 27.8392 100.439 26.8791 98.6436 24.7567C96.4486 22.1639 94.453 17.6734 98.0453 16.8755C101.637 16.0776 100.639 20.3674 102.235 20.3674C103.832 20.3674 102.435 14.6808 103.033 11.4876C103.632 8.29431 111.813 8.69405 115.804 8.09521C119.795 7.49798 120.294 -1.0832 110.017 0.114471C103.095 0.920412 98.0453 3.00752 93.6553 9.59312C90.3328 14.5765 91.959 22.7627 96.7484 27.1521Z" fill="#151A36"/>
<path d="M178.062 202.756H161.565V202.143H178.062V202.756Z" fill="#93A5DB"/>
<path d="M173.804 231.224H157.309V230.611H173.804V231.224Z" fill="#93A5DB"/>
<path d="M178.062 259.957H161.565V259.343H178.062V259.957Z" fill="#93A5DB"/>
<path d="M18.866 217.085C16.2572 219.271 19.5334 225.096 26.075 223.893C32.6166 222.692 35.9542 219.621 32.3495 216.283C28.7448 212.947 23.8054 212.947 18.866 217.085Z" fill="#4954AE"/>
<path d="M37.5708 205.092C42.0285 196.92 48.861 203.767 53.1207 205.85C61.6534 210.022 63.0419 204.554 67.5321 206.798C72.0832 209.073 70.1867 214.953 60.5157 216.659C52.1103 218.143 33.0198 213.435 37.5708 205.092Z" fill="#4954AE"/>
</svg>
