<svg width="40" height="40" viewBox="0 0 40 40" fill="none" xmlns="http://www.w3.org/2000/svg">
<path d="M36 0H4C1.8 0 0 1.8 0 4V36C0 38.2 1.8 40 4 40H36C38.2 40 40 38.2 40 36V4C40 1.8 38.2 0 36 0ZM31.4 14.6C31.2 23.8 25.4 30.2 16.6 30.6C13 30.8 10.4 29.6 8 28.2C10.6 28.6001 14 27.6001 15.8 26C13.2 25.8 11.6 24.4 10.8 22.2C11.6 22.4 12.4 22.2 13 22.2C10.6 21.4 9 20 8.8 16.8C9.4 17.2 10.2 17.4 11 17.4C9.2 16.4 8 12.6 9.4 10.2C12 13 15.2 15.4 20.4 15.8C19 10.2 26.6001 7.2 29.6001 11C31.0001 10.8 32.0001 10.2 33.0001 9.8C32.6001 11.2 31.8001 12 30.8001 12.8C31.8001 12.6 32.8001 12.4 33.6001 12C33.4 13 32.4 13.8 31.4 14.6Z" fill="#F03D44"/>
</svg>
