<svg width="204" height="57" viewBox="0 0 204 57" fill="none" xmlns="http://www.w3.org/2000/svg">
<rect width="204" height="57" rx="5" fill="url(#paint0_linear)"/>
<path d="M40.7031 36H37.2559L35.3223 28.5C35.2507 28.2331 35.127 27.6829 34.9512 26.8496C34.7819 26.0098 34.6842 25.4466 34.6582 25.1602C34.6191 25.5117 34.5215 26.0781 34.3652 26.8594C34.209 27.6341 34.0885 28.1875 34.0039 28.5195L32.0801 36H28.6426L25 21.7227H27.9785L29.8047 29.5156C30.1237 30.9544 30.3548 32.2012 30.498 33.2559C30.5371 32.8848 30.625 32.3118 30.7617 31.5371C30.9049 30.7559 31.0384 30.1504 31.1621 29.7207L33.2422 21.7227H36.1035L38.1836 29.7207C38.2747 30.0788 38.3887 30.6257 38.5254 31.3613C38.6621 32.097 38.7663 32.7285 38.8379 33.2559C38.903 32.748 39.0072 32.1165 39.1504 31.3613C39.2936 30.5996 39.4238 29.9844 39.541 29.5156L41.3574 21.7227H44.3359L40.7031 36ZM57.832 36H54.8145V29.8379H49.1602V36H46.1328V21.7227H49.1602V27.3184H54.8145V21.7227H57.832V36ZM70.1855 36L69.1504 32.6016H63.9453L62.9102 36H59.6484L64.6875 21.6641H68.3887L73.4473 36H70.1855ZM68.4277 30.0625C67.4707 26.9831 66.9303 25.2415 66.8066 24.8379C66.6895 24.4342 66.6048 24.1152 66.5527 23.8809C66.3379 24.7142 65.7227 26.7747 64.707 30.0625H68.4277ZM80.7617 36H77.7344V24.2422H73.8574V21.7227H84.6387V24.2422H80.7617V36ZM95.2637 32.0352C95.2637 33.3242 94.7982 34.3398 93.8672 35.082C92.9427 35.8242 91.6536 36.1953 90 36.1953C88.4766 36.1953 87.1289 35.9089 85.957 35.3359V32.5234C86.9206 32.9531 87.7344 33.2559 88.3984 33.4316C89.069 33.6074 89.681 33.6953 90.2344 33.6953C90.8984 33.6953 91.4062 33.5684 91.7578 33.3145C92.1159 33.0605 92.2949 32.6829 92.2949 32.1816C92.2949 31.9017 92.2168 31.6543 92.0605 31.4395C91.9043 31.2181 91.6732 31.0065 91.3672 30.8047C91.0677 30.6029 90.4525 30.2806 89.5215 29.8379C88.6491 29.4277 87.9948 29.0339 87.5586 28.6562C87.1224 28.2786 86.7741 27.8392 86.5137 27.3379C86.2533 26.8366 86.123 26.2507 86.123 25.5801C86.123 24.3171 86.5495 23.3242 87.4023 22.6016C88.2617 21.8789 89.4466 21.5176 90.957 21.5176C91.6992 21.5176 92.4056 21.6055 93.0762 21.7812C93.7533 21.957 94.4596 22.2044 95.1953 22.5234L94.2188 24.877C93.457 24.5645 92.8255 24.3464 92.3242 24.2227C91.8294 24.099 91.3411 24.0371 90.8594 24.0371C90.2865 24.0371 89.847 24.1706 89.541 24.4375C89.235 24.7044 89.082 25.0527 89.082 25.4824C89.082 25.7493 89.1439 25.9837 89.2676 26.1855C89.3913 26.3809 89.5866 26.5729 89.8535 26.7617C90.127 26.944 90.7682 27.276 91.7773 27.7578C93.112 28.3958 94.0267 29.0371 94.5215 29.6816C95.0163 30.3197 95.2637 31.1042 95.2637 32.0352ZM106.592 36L105.557 32.6016H100.352L99.3164 36H96.0547L101.094 21.6641H104.795L109.854 36H106.592ZM104.834 30.0625C103.877 26.9831 103.337 25.2415 103.213 24.8379C103.096 24.4342 103.011 24.1152 102.959 23.8809C102.744 24.7142 102.129 26.7747 101.113 30.0625H104.834ZM114.688 28.4414H115.684C116.615 28.4414 117.311 28.2591 117.773 27.8945C118.236 27.5234 118.467 26.9863 118.467 26.2832C118.467 25.5736 118.271 25.0495 117.881 24.7109C117.497 24.3724 116.891 24.2031 116.064 24.2031H114.688V28.4414ZM121.523 26.1758C121.523 27.7122 121.042 28.8874 120.078 29.7012C119.121 30.515 117.757 30.9219 115.986 30.9219H114.688V36H111.66V21.7227H116.221C117.952 21.7227 119.268 22.097 120.166 22.8457C121.071 23.5879 121.523 24.6979 121.523 26.1758ZM127.246 28.4414H128.242C129.173 28.4414 129.87 28.2591 130.332 27.8945C130.794 27.5234 131.025 26.9863 131.025 26.2832C131.025 25.5736 130.83 25.0495 130.439 24.7109C130.055 24.3724 129.45 24.2031 128.623 24.2031H127.246V28.4414ZM134.082 26.1758C134.082 27.7122 133.6 28.8874 132.637 29.7012C131.68 30.515 130.316 30.9219 128.545 30.9219H127.246V36H124.219V21.7227H128.779C130.511 21.7227 131.826 22.097 132.725 22.8457C133.63 23.5879 134.082 24.6979 134.082 26.1758Z" fill="white"/>
<path d="M148.473 42.4484L150.519 35.015C149.257 32.8346 148.593 30.362 148.594 27.8454C148.594 19.9344 155.062 13.4988 162.997 13.4988C166.853 13.4988 170.466 14.9954 173.185 17.7036C175.904 20.4119 177.399 24.0182 177.399 27.8525C177.399 35.7633 170.931 42.1989 162.997 42.1989H162.99C160.578 42.1989 158.21 41.5932 156.107 40.4529L148.473 42.4486V42.4484Z" fill="url(#paint1_linear)"/>
<path d="M147.95 42.9687L150.068 35.2717C148.766 33.0196 148.072 30.461 148.079 27.8454C148.079 19.6494 154.776 12.9857 163.004 12.9857C166.996 12.9857 170.745 14.5322 173.557 17.3402C176.376 20.1482 177.929 23.8828 177.922 27.8525C177.922 36.0485 171.225 42.7122 162.997 42.7122H162.99C160.498 42.7112 158.045 42.0889 155.856 40.9019L147.95 42.9688V42.9687ZM156.228 38.2079L156.679 38.4788C158.582 39.6049 160.765 40.1964 162.99 40.2035H162.997C169.83 40.2035 175.396 34.6659 175.396 27.8525C175.396 24.5528 174.108 21.4525 171.769 19.1149C169.429 16.7773 166.31 15.4944 162.997 15.4944C156.157 15.4944 150.591 21.032 150.591 27.8454C150.591 30.1759 151.242 32.4494 152.487 34.4164L152.78 34.8868L151.528 39.4409L156.228 38.2079Z" fill="white"/>
<path d="M159.269 21.6234C158.99 21.0034 158.697 20.989 158.432 20.982C158.218 20.9749 157.967 20.9749 157.717 20.9749C157.466 20.9749 157.066 21.0675 156.722 21.438C156.379 21.8087 155.42 22.7067 155.42 24.5384C155.42 26.3628 156.758 28.1303 156.944 28.3797C157.13 28.6292 159.527 32.4991 163.312 33.9886C166.46 35.2288 167.104 34.9793 167.783 34.9152C168.47 34.851 169.987 34.0172 170.302 33.1477C170.61 32.2782 170.61 31.537 170.517 31.3802C170.424 31.2233 170.173 31.1308 169.801 30.9454C169.429 30.7601 167.597 29.8621 167.254 29.7339C166.911 29.6056 166.66 29.5486 166.417 29.9192C166.166 30.2897 165.451 31.1236 165.236 31.3731C165.022 31.6225 164.8 31.651 164.428 31.4658C164.056 31.2805 162.854 30.8884 161.43 29.6198C160.321 28.6363 159.57 27.4176 159.355 27.047C159.14 26.6765 159.334 26.4767 159.52 26.2916C159.684 26.1276 159.892 25.8568 160.078 25.643C160.264 25.4292 160.328 25.2724 160.45 25.0229C160.571 24.7735 160.514 24.5597 160.421 24.3745C160.328 24.189 159.598 22.3575 159.269 21.6234Z" fill="white"/>
<defs>
<linearGradient id="paint0_linear" x1="0" y1="28.5" x2="204" y2="28.5" gradientUnits="userSpaceOnUse">
<stop offset="0.703125" stop-color="#19AD29"/>
<stop offset="1" stop-color="#29B53F"/>
</linearGradient>
<linearGradient id="paint1_linear" x1="162.935" y1="42.4465" x2="162.935" y2="13.497" gradientUnits="userSpaceOnUse">
<stop stop-color="#1E832F"/>
<stop offset="1" stop-color="#60D66A"/>
</linearGradient>
</defs>
</svg>
